  0
SECTION
  2
HEADER
  9
$ACADVER
  1
AC1014
  9
$HANDSEED
  5
FFFF
  9
$MEASUREMENT
 70
     1
  0
ENDSEC
  0
SECTION
  2
TABLES
  0
TABLE
  2
VPORT
  5
8
330
0
100
AcDbSymbolTable
 70
     4
  0
VPORT
  5
2E
330
8
100
AcDbSymbolTableRecord
100
AcDbViewportTableRecord
  2
*ACTIVE
 70
     0
 10
0.0
 20
0.0
 11
1.0
 21
1.0
 12
210.0
 22
148.5
 13
0.0
 23
0.0
 14
10.0
 24
10.0
 15
10.0
 25
10.0
 16
0.0
 26
0.0
 36
1.0
 17
0.0
 27
0.0
 37
0.0
 40
341.0
 41
1.24
 42
50.0
 43
0.0
 44
0.0
 50
0.0
 51
0.0
 71
     0
 72
   100
 73
     1
 74
     3
 75
     0
 76
     0
 77
     0
 78
     0
  0
ENDTAB
  0
TABLE
  2
LTYPE
  5
5
330
0
100
AcDbSymbolTable
 70
     1
  0
LTYPE
  5
14
330
5
100
AcDbSymbolTableRecord
100
AcDbLinetypeTableRecord
  2
BYBLOCK
 70
     0
  3

 72
    65
 73
     0
 40
0.0
  0
LTYPE
  5
15
330
5
100
AcDbSymbolTableRecord
100
AcDbLinetypeTableRecord
  2
BYLAYER
 70
     0
  3

 72
    65
 73
     0
 40
0.0
  0
LTYPE
  5
16
330
5
100
AcDbSymbolTableRecord
100
AcDbLinetypeTableRecord
  2
CONTINUOUS
 70
     0
  3
Solid line
 72
    65
 73
     0
 40
0.0
  0
ENDTAB
  0
TABLE
  2
LAYER
  5
2
100
AcDbSymbolTable
 70
7
  0
LAYER
  5
50
100
AcDbSymbolTableRecord
100
AcDbLayerTableRecord
  2
0
 70
0
  6
CONTINUOUS
  0
LAYER
  5
51
100
AcDbSymbolTableRecord
100
AcDbLayerTableRecord
  2
size
 70
0
  6
CONTINUOUS
  0
LAYER
  5
52
100
AcDbSymbolTableRecord
100
AcDbLayerTableRecord
  2
drillHoles
 70
0
  6
CONTINUOUS
  0
LAYER
  5
53
100
AcDbSymbolTableRecord
100
AcDbLayerTableRecord
  2
engraving
 70
0
  6
CONTINUOUS
  0
LAYER
  5
54
100
AcDbSymbolTableRecord
100
AcDbLayerTableRecord
  2
Wall
 70
0
  6
CONTINUOUS
  0
LAYER
  5
55
100
AcDbSymbolTableRecord
100
AcDbLayerTableRecord
  2
Base
 70
0
  6
CONTINUOUS
  0
LAYER
  5
56
100
AcDbSymbolTableRecord
100
AcDbLayerTableRecord
  2
Support
 70
0
  6
CONTINUOUS
  0
ENDTAB
  0
TABLE
  2
STYLE
  5
3
330
0
100
AcDbSymbolTable
 70
     1
  0
STYLE
  5
11
330
3
100
AcDbSymbolTableRecord
100
AcDbTextStyleTableRecord
  2
STANDARD
 70
     0
 40
0.0
 41
1.0
 50
0.0
 71
     0
 42
2.5
  3
txt
  4

  0
ENDTAB
  0
TABLE
  2
VIEW
  5
6
330
0
100
AcDbSymbolTable
 70
     0
  0
ENDTAB
  0
TABLE
  2
UCS
  5
7
330
0
100
AcDbSymbolTable
 70
     0
  0
ENDTAB
  0
TABLE
  2
APPID
  5
9
330
0
100
AcDbSymbolTable
 70
     2
  0
APPID
  5
12
330
9
100
AcDbSymbolTableRecord
100
AcDbRegAppTableRecord
  2
ACAD
 70
     0
  0
ENDTAB
  0
TABLE
  2
DIMSTYLE
  5
A
330
0
100
AcDbSymbolTable
 70
     1
  0
DIMSTYLE
105
27
330
A
100
AcDbSymbolTableRecord
100
AcDbDimStyleTableRecord
  2
ISO-25
 70
     0
  3

  4

  5

  6

  7

 40
1.0
 41
2.5
 42
0.625
 43
3.75
 44
1.25
 45
0.0
 46
0.0
 47
0.0
 48
0.0
140
2.5
141
2.5
142
0.0
143
0.03937007874016
144
1.0
145
0.0
146
1.0
147
0.625
 71
     0
 72
     0
 73
     0
 74
     0
 75
     0
 76
     0
 77
     1
 78
     8
170
     0
171
     3
172
     1
173
     0
174
     0
175
     0
176
     0
177
     0
178
     0
270
     2
271
     2
272
     2
273
     2
274
     3
340
11
275
     0
280
     0
281
     0
282
     0
283
     0
284
     8
285
     0
286
     0
287
     3
288
     0
  0
ENDTAB
  0
TABLE
  2
BLOCK_RECORD
  5
1
330
0
100
AcDbSymbolTable
 70
     1
  0
BLOCK_RECORD
  5
1F
330
1
100
AcDbSymbolTableRecord
100
AcDbBlockTableRecord
  2
*MODEL_SPACE
  0
BLOCK_RECORD
  5
1B
330
1
100
AcDbSymbolTableRecord
100
AcDbBlockTableRecord
  2
*PAPER_SPACE
  0
ENDTAB
  0
ENDSEC
  0
SECTION
  2
BLOCKS
  0
BLOCK
  5
20
330
1F
100
AcDbEntity
  8
0
100
AcDbBlockBegin
  2
*MODEL_SPACE
 70
     0
 10
0.0
 20
0.0
 30
0.0
  3
*MODEL_SPACE
  1

  0
ENDBLK
  5
21
330
1F
100
AcDbEntity
  8
0
100
AcDbBlockEnd
  0
BLOCK
  5
1C
330
1B
100
AcDbEntity
 67
     1
  8
0
100
AcDbBlockBegin
  2
*PAPER_SPACE
  1

  0
ENDBLK
  5
1D
330
1B
100
AcDbEntity
 67
     1
  8
0
100
AcDbBlockEnd
  0
ENDSEC
  0
SECTION
  2
ENTITIES
  0
LWPOLYLINE
  5
100
100
AcDbEntity
  8
size
 62
1
100
AcDbPolyline
 90
2
 70
0
 10
160.275764
 20
-738.675575
 30
0.0
 10
160.275764
 20
-912.363701
 30
0.0
  0
SPLINE
  5
101
100
AcDbEntity
  8
size
 62
1
100
AcDbSpline
 70
0
 71
3
 72
13
 73
9
 74
7
 40
0.000000
 40
0.000000
 40
0.000000
 40
0.000000
 40
4.381796
 40
8.727330
 40
13.109126
 40
17.490922
 40
21.836457
 40
26.218252
 40
26.218252
 40
26.218252
 40
26.218252
 10
160.275764
 20
-912.363701
 30
0.0
 10
160.164180
 20
-913.828567
 30
0.0
 10
159.941933
 20
-916.746177
 30
0.0
 10
158.185612
 20
-920.827784
 30
0.0
 10
155.513543
 20
-924.340273
 30
0.0
 10
152.001053
 20
-927.012342
 30
0.0
 10
147.919447
 20
-928.768663
 30
0.0
 10
145.001837
 20
-928.990910
 30
0.0
 10
143.536971
 20
-929.102494
 30
0.0
 11
160.275764
 21
-912.363701
 31
0.0
 11
159.702285
 21
-916.707807
 31
0.0
 11
158.039320
 21
-920.722557
 31
0.0
 11
155.373085
 21
-924.199815
 31
0.0
 11
151.895827
 21
-926.866050
 31
0.0
 11
147.881077
 21
-928.529015
 31
0.0
 11
143.536971
 21
-929.102494
 31
0.0
  0
LWPOLYLINE
  5
102
100
AcDbEntity
  8
size
 62
1
100
AcDbPolyline
 90
2
 70
0
 10
143.536971
 20
-929.102494
 30
0.0
 10
-143.536971
 20
-929.102494
 30
0.0
  0
SPLINE
  5
103
100
AcDbEntity
  8
size
 62
1
100
AcDbSpline
 70
0
 71
3
 72
13
 73
9
 74
7
 40
0.000000
 40
0.000000
 40
0.000000
 40
0.000000
 40
4.381796
 40
8.727330
 40
13.109126
 40
17.490922
 40
21.836457
 40
26.218252
 40
26.218252
 40
26.218252
 40
26.218252
 10
-143.536971
 20
-929.102494
 30
0.0
 10
-145.001837
 20
-928.990910
 30
0.0
 10
-147.919447
 20
-928.768663
 30
0.0
 10
-152.001053
 20
-927.012342
 30
0.0
 10
-155.513543
 20
-924.340273
 30
0.0
 10
-158.185612
 20
-920.827784
 30
0.0
 10
-159.941933
 20
-916.746177
 30
0.0
 10
-160.164180
 20
-913.828567
 30
0.0
 10
-160.275764
 20
-912.363701
 30
0.0
 11
-143.536971
 21
-929.102494
 31
0.0
 11
-147.881077
 21
-928.529015
 31
0.0
 11
-151.895827
 21
-926.866050
 31
0.0
 11
-155.373085
 21
-924.199815
 31
0.0
 11
-158.039320
 21
-920.722557
 31
0.0
 11
-159.702285
 21
-916.707807
 31
0.0
 11
-160.275764
 21
-912.363701
 31
0.0
  0
LWPOLYLINE
  5
104
100
AcDbEntity
  8
size
 62
1
100
AcDbPolyline
 90
2
 70
0
 10
-160.275764
 20
-912.363701
 30
0.0
 10
-160.275764
 20
-738.675575
 30
0.0
  0
SPLINE
  5
105
100
AcDbEntity
  8
size
 62
1
100
AcDbSpline
 70
0
 71
3
 72
13
 73
9
 74
7
 40
0.000000
 40
0.000000
 40
0.000000
 40
0.000000
 40
4.381796
 40
8.727330
 40
13.109126
 40
17.490922
 40
21.836457
 40
26.218252
 40
26.218252
 40
26.218252
 40
26.218252
 10
-160.275764
 20
-738.675575
 30
0.0
 10
-160.164180
 20
-737.210709
 30
0.0
 10
-159.941933
 20
-734.293099
 30
0.0
 10
-158.185612
 20
-730.211492
 30
0.0
 10
-155.513543
 20
-726.699003
 30
0.0
 10
-152.001053
 20
-724.026934
 30
0.0
 10
-147.919447
 20
-722.270612
 30
0.0
 10
-145.001837
 20
-722.048366
 30
0.0
 10
-143.536971
 20
-721.936781
 30
0.0
 11
-160.275764
 21
-738.675575
 31
0.0
 11
-159.702285
 21
-734.331469
 31
0.0
 11
-158.039320
 21
-730.316718
 31
0.0
 11
-155.373085
 21
-726.839460
 31
0.0
 11
-151.895827
 21
-724.173225
 31
0.0
 11
-147.881077
 21
-722.510261
 31
0.0
 11
-143.536971
 21
-721.936781
 31
0.0
  0
LWPOLYLINE
  5
106
100
AcDbEntity
  8
size
 62
1
100
AcDbPolyline
 90
2
 70
0
 10
-143.536971
 20
-721.936781
 30
0.0
 10
143.536971
 20
-721.936781
 30
0.0
  0
LWPOLYLINE
  5
107
100
AcDbEntity
  8
size
 62
1
100
AcDbPolyline
 90
1
 70
1
 10
160.275764
 20
-738.675575
 30
0.0
  0
LWPOLYLINE
  5
108
100
AcDbEntity
  8
drillHoles
 62
1
100
AcDbPolyline
 90
32
 70
1
 10
23.264656
 20
-13.621230
 30
0.0
 10
23.164716
 20
-14.612590
 30
0.0
 10
22.878090
 20
-15.535950
 30
0.0
 10
22.424556
 20
-16.371530
 30
0.0
 10
21.823894
 20
-17.099540
 30
0.0
 10
21.095886
 20
-17.700200
 30
0.0
 10
20.260312
 20
-18.153730
 30
0.0
 10
19.336952
 20
-18.440360
 30
0.0
 10
18.345589
 20
-18.540260
 30
0.0
 10
17.354225
 20
-18.440360
 30
0.0
 10
16.430866
 20
-18.153730
 30
0.0
 10
15.595291
 20
-17.700200
 30
0.0
 10
14.867283
 20
-17.099540
 30
0.0
 10
14.266622
 20
-16.371530
 30
0.0
 10
13.813088
 20
-15.535950
 30
0.0
 10
13.526462
 20
-14.612590
 30
0.0
 10
13.426522
 20
-13.621230
 30
0.0
 10
13.526462
 20
-12.629870
 30
0.0
 10
13.813089
 20
-11.706510
 30
0.0
 10
14.266623
 20
-10.870940
 30
0.0
 10
14.867285
 20
-10.142930
 30
0.0
 10
15.595293
 20
-9.542270
 30
0.0
 10
16.430866
 20
-9.088730
 30
0.0
 10
17.354224
 20
-8.802110
 30
0.0
 10
18.345587
 20
-8.702110
 30
0.0
 10
19.336949
 20
-8.802010
 30
0.0
 10
20.260307
 20
-9.088630
 30
0.0
 10
21.095881
 20
-9.542170
 30
0.0
 10
21.823889
 20
-10.142830
 30
0.0
 10
22.424550
 20
-10.870840
 30
0.0
 10
22.878085
 20
-11.706410
 30
0.0
 10
23.164712
 20
-12.629770
 30
0.0
  0
LWPOLYLINE
  5
109
100
AcDbEntity
  8
drillHoles
 62
1
100
AcDbPolyline
 90
32
 70
1
 10
7.259684
 20
19.144340
 30
0.0
 10
12.802636
 20
19.144340
 30
0.0
 10
18.345589
 20
19.144340
 30
0.0
 10
23.888543
 20
19.144340
 30
0.0
 10
29.431496
 20
19.144340
 30
0.0
 10
29.813284
 20
19.067640
 30
0.0
 10
30.124400
 20
18.858220
 30
0.0
 10
30.333819
 20
18.547100
 30
0.0
 10
30.410519
 20
18.165320
 30
0.0
 10
30.410519
 20
14.844510
 30
0.0
 10
30.410519
 20
11.523680
 30
0.0
 10
30.410519
 20
8.202870
 30
0.0
 10
30.410519
 20
4.882050
 30
0.0
 10
30.333819
 20
4.500260
 30
0.0
 10
30.124400
 20
4.189150
 30
0.0
 10
29.813284
 20
3.979730
 30
0.0
 10
29.431496
 20
3.903030
 30
0.0
 10
23.888543
 20
3.903030
 30
0.0
 10
18.345589
 20
3.903030
 30
0.0
 10
12.802636
 20
3.903030
 30
0.0
 10
7.259684
 20
3.903030
 30
0.0
 10
6.877896
 20
3.979730
 30
0.0
 10
6.566780
 20
4.189150
 30
0.0
 10
6.357361
 20
4.500260
 30
0.0
 10
6.280661
 20
4.882050
 30
0.0
 10
6.280661
 20
8.202870
 30
0.0
 10
6.280661
 20
11.523680
 30
0.0
 10
6.280661
 20
14.844510
 30
0.0
 10
6.280661
 20
18.165320
 30
0.0
 10
6.357361
 20
18.547100
 30
0.0
 10
6.566780
 20
18.858220
 30
0.0
 10
6.877896
 20
19.067640
 30
0.0
  0
LWPOLYLINE
  5
10a
100
AcDbEntity
  8
drillHoles
 62
1
100
AcDbPolyline
 90
32
 70
1
 10
-20.076490
 20
11.401080
 30
0.0
 10
-20.107470
 20
11.093780
 30
0.0
 10
-20.196320
 20
10.807570
 30
0.0
 10
-20.336903
 20
10.548550
 30
0.0
 10
-20.523093
 20
10.322890
 30
0.0
 10
-20.748757
 20
10.136700
 30
0.0
 10
-21.007764
 20
9.996120
 30
0.0
 10
-21.293982
 20
9.907220
 30
0.0
 10
-21.601278
 20
9.876220
 30
0.0
 10
-21.908577
 20
9.907220
 30
0.0
 10
-22.194794
 20
9.996120
 30
0.0
 10
-22.453802
 20
10.136700
 30
0.0
 10
-22.679465
 20
10.322890
 30
0.0
 10
-22.865655
 20
10.548550
 30
0.0
 10
-23.006238
 20
10.807570
 30
0.0
 10
-23.095088
 20
11.093780
 30
0.0
 10
-23.126068
 20
11.401080
 30
0.0
 10
-23.095088
 20
11.708380
 30
0.0
 10
-23.006238
 20
11.994590
 30
0.0
 10
-22.865654
 20
12.253600
 30
0.0
 10
-22.679464
 20
12.479260
 30
0.0
 10
-22.453800
 20
12.665450
 30
0.0
 10
-22.194794
 20
12.806040
 30
0.0
 10
-21.908577
 20
12.894940
 30
0.0
 10
-21.601279
 20
12.925940
 30
0.0
 10
-21.293983
 20
12.894940
 30
0.0
 10
-21.007765
 20
12.806040
 30
0.0
 10
-20.748758
 20
12.665450
 30
0.0
 10
-20.523094
 20
12.479260
 30
0.0
 10
-20.336905
 20
12.253600
 30
0.0
 10
-20.196321
 20
11.994590
 30
0.0
 10
-20.107471
 20
11.708380
 30
0.0
  0
LWPOLYLINE
  5
10b
100
AcDbEntity
  8
engraving
 62
1
100
AcDbPolyline
 90
10
 70
1
 10
-30.028425
 20
15.550956
 30
0.0
 10
-27.564781
 20
13.887085
 30
0.0
 10
-27.338392
 20
11.015366
 30
0.0
 10
-28.723359
 20
9.585669
 30
0.0
 10
-26.259715
 20
7.576696
 30
0.0
 10
-29.149503
 20
6.418148
 30
0.0
 10
-32.172461
 20
8.809193
 30
0.0
 10
-31.719683
 20
6.430473
 30
0.0
 10
-34.782592
 20
6.430473
 30
0.0
 10
-35.554978
 20
15.156559
 30
0.0
  0
LWPOLYLINE
  5
10c
100
AcDbEntity
  8
engraving
 62
1
100
AcDbPolyline
 90
4
 70
1
 10
-32.172461
 20
12.999685
 30
0.0
 10
-32.252363
 20
11.249541
 30
0.0
 10
-31.440026
 20
11.150940
 30
0.0
 10
-30.627689
 20
12.235538
 30
0.0
  0
LWPOLYLINE
  5
10d
100
AcDbEntity
  8
engraving
 62
1
100
AcDbPolyline
 90
14
 70
1
 10
-6.776989
 20
13.295485
 30
0.0
 10
-8.494882
 20
11.335813
 30
0.0
 10
-10.505750
 20
12.531338
 30
0.0
 10
-11.011794
 20
11.939738
 30
0.0
 10
-7.416206
 20
9.499394
 30
0.0
 10
-9.160733
 20
6.455124
 30
0.0
 10
-13.435487
 20
6.455124
 30
0.0
 10
-16.418494
 20
8.648968
 30
0.0
 10
-15.126747
 20
10.657942
 30
0.0
 10
-12.556565
 20
9.314517
 30
0.0
 10
-12.170372
 20
9.869144
 30
0.0
 10
-15.939082
 20
11.939738
 30
0.0
 10
-12.370129
 20
15.637232
 30
0.0
 10
-9.160733
 20
15.637232
 30
0.0
  0
LWPOLYLINE
  5
10e
100
AcDbEntity
  8
engraving
 62
1
100
AcDbPolyline
 90
6
 70
1
 10
-13.266266
 20
18.351151
 30
0.0
 10
-12.230282
 20
19.619459
 30
0.0
 10
-10.722776
 20
17.754606
 30
0.0
 10
-9.075014
 20
19.448651
 30
0.0
 10
-8.073961
 20
17.806406
 30
0.0
 10
-10.712608
 20
16.097798
 30
0.0
  0
LWPOLYLINE
  5
10f
100
AcDbEntity
  8
engraving
 62
1
100
AcDbPolyline
 90
112
 70
1
 10
-27.910620
 20
2.257904
 30
0.0
 10
-27.874538
 20
2.441496
 30
0.0
 10
-27.707067
 20
2.781110
 30
0.0
 10
-27.278619
 20
3.508873
 30
0.0
 10
-26.459604
 20
4.856916
 30
0.0
 10
-26.111525
 20
5.428186
 30
0.0
 10
-25.763444
 20
5.999457
 30
0.0
 10
-25.415365
 20
6.570727
 30
0.0
 10
-25.067286
 20
7.141997
 30
0.0
 10
-25.020775
 20
7.112444
 30
0.0
 10
-24.974260
 20
7.082892
 30
0.0
 10
-24.927748
 20
7.053339
 30
0.0
 10
-24.881237
 20
7.023787
 30
0.0
 10
-24.834725
 20
6.994235
 30
0.0
 10
-24.788210
 20
6.964682
 30
0.0
 10
-24.741698
 20
6.935130
 30
0.0
 10
-24.695187
 20
6.905577
 30
0.0
 10
-24.650158
 20
6.979117
 30
0.0
 10
-24.605126
 20
7.052656
 30
0.0
 10
-24.560098
 20
7.126196
 30
0.0
 10
-24.515069
 20
7.199735
 30
0.0
 10
-24.470038
 20
7.273274
 30
0.0
 10
-24.425006
 20
7.346814
 30
0.0
 10
-24.379974
 20
7.420350
 30
0.0
 10
-24.334942
 20
7.493889
 30
0.0
 10
-24.351940
 20
7.507553
 30
0.0
 10
-24.368938
 20
7.521217
 30
0.0
 10
-24.385903
 20
7.534880
 30
0.0
 10
-24.402901
 20
7.548544
 30
0.0
 10
-24.446308
 20
7.585928
 30
0.0
 10
-24.514264
 20
7.647252
 30
0.0
 10
-24.597457
 20
7.724013
 30
0.0
 10
-24.686576
 20
7.807709
 30
0.0
 10
-25.465442
 20
8.770496
 30
0.0
 10
-25.970162
 20
9.892644
 30
0.0
 10
-26.181425
 20
11.110971
 30
0.0
 10
-26.079909
 20
12.362294
 30
0.0
 10
-25.757003
 20
13.345238
 30
0.0
 10
-25.238668
 20
14.224966
 30
0.0
 10
-24.549422
 20
14.968523
 30
0.0
 10
-23.713780
 20
15.542959
 30
0.0
 10
-23.452332
 20
15.675258
 30
0.0
 10
-23.215697
 20
15.777905
 30
0.0
 10
-22.971474
 20
15.863594
 30
0.0
 10
-22.687264
 20
15.945012
 30
0.0
 10
-22.134312
 20
16.058342
 30
0.0
 10
-21.586924
 20
16.102514
 30
0.0
 10
-21.038100
 20
16.077631
 30
0.0
 10
-20.480824
 20
15.983844
 30
0.0
 10
-19.620335
 20
15.694757
 30
0.0
 10
-18.826201
 20
15.243264
 30
0.0
 10
-18.128104
 20
14.650135
 30
0.0
 10
-17.555716
 20
13.936145
 30
0.0
 10
-17.206929
 20
13.297904
 30
0.0
 10
-16.954170
 20
12.609628
 30
0.0
 10
-16.803136
 20
11.891157
 30
0.0
 10
-16.759523
 20
11.162344
 30
0.0
 10
-16.924718
 20
9.980039
 30
0.0
 10
-17.362833
 20
8.895080
 30
0.0
 10
-18.047802
 20
7.954465
 30
0.0
 10
-18.953570
 20
7.205200
 30
0.0
 10
-19.294327
 20
7.006999
 30
0.0
 10
-19.634554
 20
6.846560
 30
0.0
 10
-19.990153
 20
6.717266
 30
0.0
 10
-20.377023
 20
6.612492
 30
0.0
 10
-20.646811
 20
6.554879
 30
0.0
 10
-20.884109
 20
6.516426
 30
0.0
 10
-21.114815
 20
6.493799
 30
0.0
 10
-21.364808
 20
6.483677
 30
0.0
 10
-21.898971
 20
6.509093
 30
0.0
 10
-22.447896
 20
6.600345
 30
0.0
 10
-22.982956
 20
6.751027
 30
0.0
 10
-23.475513
 20
6.954760
 30
0.0
 10
-23.494916
 20
6.964350
 30
0.0
 10
-23.514318
 20
6.973940
 30
0.0
 10
-23.533721
 20
6.983529
 30
0.0
 10
-23.553123
 20
6.993119
 30
0.0
 10
-23.597925
 20
6.919435
 30
0.0
 10
-23.642726
 20
6.845749
 30
0.0
 10
-23.687531
 20
6.772062
 30
0.0
 10
-23.732333
 20
6.698378
 30
0.0
 10
-23.777138
 20
6.624695
 30
0.0
 10
-23.821943
 20
6.551011
 30
0.0
 10
-23.866751
 20
6.477328
 30
0.0
 10
-23.911556
 20
6.403644
 30
0.0
 10
-23.865265
 20
6.373747
 30
0.0
 10
-23.818977
 20
6.343850
 30
0.0
 10
-23.772689
 20
6.313953
 30
0.0
 10
-23.726397
 20
6.284056
 30
0.0
 10
-23.680102
 20
6.254159
 30
0.0
 10
-23.633804
 20
6.224262
 30
0.0
 10
-23.587509
 20
6.194364
 30
0.0
 10
-23.541214
 20
6.164467
 30
0.0
 10
-23.889963
 20
5.593392
 30
0.0
 10
-24.238709
 20
5.022313
 30
0.0
 10
-24.587458
 20
4.451234
 30
0.0
 10
-24.936207
 20
3.880158
 30
0.0
 10
-25.716813
 20
2.604422
 30
0.0
 10
-26.150154
 20
1.908324
 30
0.0
 10
-26.358349
 20
1.600807
 30
0.0
 10
-26.463529
 20
1.490827
 30
0.0
 10
-26.883704
 20
1.307605
 30
0.0
 10
-27.314323
 20
1.354174
 30
0.0
 10
-27.674994
 20
1.600757
 30
0.0
 10
-27.885316
 20
2.017574
 30
0.0
 10
-27.897336
 20
2.081712
 30
0.0
 10
-27.906072
 20
2.148378
 30
0.0
 10
-27.910677
 20
2.209693
 30
0.0
 10
-27.910400
 20
2.257766
 30
0.0
 10
-27.910447
 20
2.257776
 30
0.0
 10
-27.910495
 20
2.257785
 30
0.0
 10
-27.910545
 20
2.257797
 30
0.0
  0
LWPOLYLINE
  5
110
100
AcDbEntity
  8
engraving
 62
1
100
AcDbPolyline
 90
40
 70
1
 10
-25.112457
 20
10.091043
 30
0.0
 10
-24.982732
 20
9.746672
 30
0.0
 10
-24.827888
 20
9.429132
 30
0.0
 10
-24.640247
 20
9.124436
 30
0.0
 10
-24.412125
 20
8.818592
 30
0.0
 10
-24.202237
 20
8.575328
 30
0.0
 10
-23.989728
 20
8.366694
 30
0.0
 10
-23.757207
 20
8.177129
 30
0.0
 10
-23.487283
 20
7.991065
 30
0.0
 10
-22.513851
 20
7.539760
 30
0.0
 10
-21.484270
 20
7.380045
 30
0.0
 10
-20.452614
 20
7.512636
 30
0.0
 10
-19.472948
 20
7.938244
 30
0.0
 10
-18.629766
 20
8.641268
 30
0.0
 10
-18.028247
 20
9.543434
 30
0.0
 10
-17.696395
 20
10.586383
 30
0.0
 10
-17.662216
 20
11.711749
 30
0.0
 10
-17.709266
 20
11.996841
 30
0.0
 10
-17.788237
 20
12.320049
 30
0.0
 10
-17.887422
 20
12.639199
 30
0.0
 10
-17.995118
 20
12.912119
 30
0.0
 10
-18.671327
 20
13.939298
 30
0.0
 10
-19.596531
 20
14.688026
 30
0.0
 10
-20.699851
 20
15.117144
 30
0.0
 10
-21.910412
 20
15.185503
 30
0.0
 10
-22.182727
 20
15.140946
 30
0.0
 10
-22.501922
 20
15.063890
 30
0.0
 10
-22.813021
 20
14.969298
 30
0.0
 10
-23.061050
 20
14.872144
 30
0.0
 10
-23.631105
 20
14.543342
 30
0.0
 10
-24.135293
 20
14.128678
 30
0.0
 10
-24.562675
 20
13.638782
 30
0.0
 10
-24.902312
 20
13.084275
 30
0.0
 10
-25.171284
 20
12.371843
 30
0.0
 10
-25.297549
 20
11.612960
 30
0.0
 10
-25.278722
 20
10.841408
 30
0.0
 10
-25.112464
 20
10.090962
 30
0.0
 10
-25.112457
 20
10.090981
 30
0.0
 10
-25.112454
 20
10.091003
 30
0.0
 10
-25.112447
 20
10.091022
 30
0.0
  0
LWPOLYLINE
  5
111
100
AcDbEntity
  8
engraving
 62
1
100
AcDbPolyline
 90
32
 70
1
 10
-20.970472
 20
8.255439
 30
0.0
 10
-20.942774
 20
8.326201
 30
0.0
 10
-20.885806
 20
8.384031
 30
0.0
 10
-20.797398
 20
8.430487
 30
0.0
 10
-20.675373
 20
8.467132
 30
0.0
 10
-20.509907
 20
8.515964
 30
0.0
 10
-20.327223
 20
8.588657
 30
0.0
 10
-20.136467
 20
8.681153
 30
0.0
 10
-19.946783
 20
8.789391
 30
0.0
 10
-19.805427
 20
8.871181
 30
0.0
 10
-19.707101
 20
8.911188
 30
0.0
 10
-19.633595
 20
8.914009
 30
0.0
 10
-19.566696
 20
8.883892
 30
0.0
 10
-19.504673
 20
8.823340
 30
0.0
 10
-19.470148
 20
8.745009
 30
0.0
 10
-19.465678
 20
8.659955
 30
0.0
 10
-19.493851
 20
8.579233
 30
0.0
 10
-19.653770
 20
8.438460
 30
0.0
 10
-19.943201
 20
8.274038
 30
0.0
 10
-20.291154
 20
8.121300
 30
0.0
 10
-20.626636
 20
8.015560
 30
0.0
 10
-20.743349
 20
7.995691
 30
0.0
 10
-20.828946
 20
7.999640
 30
0.0
 10
-20.891914
 20
8.029349
 30
0.0
 10
-20.940752
 20
8.086736
 30
0.0
 10
-20.967604
 20
8.131394
 30
0.0
 10
-20.979422
 20
8.162886
 30
0.0
 10
-20.979168
 20
8.198371
 30
0.0
 10
-20.969822
 20
8.255019
 30
0.0
 10
-20.969985
 20
8.255150
 30
0.0
 10
-20.970151
 20
8.255285
 30
0.0
 10
-20.970313
 20
8.255417
 30
0.0
  0
LWPOLYLINE
  5
112
100
AcDbEntity
  8
engraving
 62
1
100
AcDbPolyline
 90
48
 70
1
 10
-20.044341
 20
14.046934
 30
0.0
 10
-20.029713
 20
14.072349
 30
0.0
 10
-20.012613
 20
14.105268
 30
0.0
 10
-19.987928
 20
14.132250
 30
0.0
 10
-19.960975
 20
14.153122
 30
0.0
 10
-19.881784
 20
14.184812
 30
0.0
 10
-19.795746
 20
14.177384
 30
0.0
 10
-19.687678
 20
14.126352
 30
0.0
 10
-19.542404
 20
14.027200
 30
0.0
 10
-18.926186
 20
13.437675
 30
0.0
 10
-18.478437
 20
12.721507
 30
0.0
 10
-18.217186
 20
11.917325
 30
0.0
 10
-18.160441
 20
11.063765
 30
0.0
 10
-18.176085
 20
10.863486
 30
0.0
 10
-18.197553
 20
10.732791
 30
0.0
 10
-18.229856
 20
10.651972
 30
0.0
 10
-18.278027
 20
10.601328
 30
0.0
 10
-18.338852
 20
10.567219
 30
0.0
 10
-18.398908
 20
10.555248
 30
0.0
 10
-18.460312
 20
10.565339
 30
0.0
 10
-18.525183
 20
10.597430
 30
0.0
 10
-18.579367
 20
10.648089
 30
0.0
 10
-18.609233
 20
10.722221
 30
0.0
 10
-18.617326
 20
10.832229
 30
0.0
 10
-18.606253
 20
10.990527
 30
0.0
 10
-18.590033
 20
11.224768
 30
0.0
 10
-18.595959
 20
11.445374
 30
0.0
 10
-18.626163
 20
11.679348
 30
0.0
 10
-18.682813
 20
11.953706
 30
0.0
 10
-18.730527
 20
12.150040
 30
0.0
 10
-18.772088
 20
12.292932
 30
0.0
 10
-18.818362
 20
12.415090
 30
0.0
 10
-18.880203
 20
12.549232
 30
0.0
 10
-18.986239
 20
12.749875
 30
0.0
 10
-19.104512
 20
12.939957
 30
0.0
 10
-19.234373
 20
13.118509
 30
0.0
 10
-19.375174
 20
13.284554
 30
0.0
 10
-19.481200
 20
13.396411
 30
0.0
 10
-19.581564
 20
13.490948
 30
0.0
 10
-19.699787
 20
13.588878
 30
0.0
 10
-19.859381
 20
13.710905
 30
0.0
 10
-19.971448
 20
13.803250
 30
0.0
 10
-20.034694
 20
13.881086
 30
0.0
 10
-20.066083
 20
13.970038
 30
0.0
 10
-20.044310
 20
14.046946
 30
0.0
 10
-20.044314
 20
14.046943
 30
0.0
 10
-20.044320
 20
14.046937
 30
0.0
 10
-20.044324
 20
14.046934
 30
0.0
  0
LWPOLYLINE
  5
113
100
AcDbEntity
  8
engraving
 62
7
100
AcDbPolyline
 90
8
 70
1
 10
0.419882
 20
15.262461
 30
0.0
 10
4.264022
 20
6.880743
 30
0.0
 10
0.590193
 20
6.296821
 30
0.0
 10
0.298232
 20
8.450035
 30
0.0
 10
-2.657860
 20
8.523024
 30
0.0
 10
-3.326935
 20
6.223829
 30
0.0
 10
-6.866947
 20
6.856412
 30
0.0
 10
-2.013116
 20
15.019160
 30
0.0
  0
SPLINE
  5
114
100
AcDbEntity
  8
size
 62
1
100
AcDbSpline
 70
0
 71
3
 72
13
 73
9
 74
7
 40
0.000000
 40
0.000000
 40
0.000000
 40
0.000000
 40
4.381796
 40
8.727330
 40
13.109126
 40
17.490922
 40
21.836457
 40
26.218252
 40
26.218252
 40
26.218252
 40
26.218252
 10
143.536971
 20
-721.936781
 30
0.0
 10
145.001837
 20
-722.048366
 30
0.0
 10
147.919447
 20
-722.270612
 30
0.0
 10
152.001053
 20
-724.026934
 30
0.0
 10
155.513543
 20
-726.699003
 30
0.0
 10
158.185612
 20
-730.211492
 30
0.0
 10
159.941933
 20
-734.293099
 30
0.0
 10
160.164180
 20
-737.210709
 30
0.0
 10
160.275764
 20
-738.675575
 30
0.0
 11
143.536971
 21
-721.936781
 31
0.0
 11
147.881077
 21
-722.510261
 31
0.0
 11
151.895827
 21
-724.173225
 31
0.0
 11
155.373085
 21
-726.839460
 31
0.0
 11
158.039320
 21
-730.316718
 31
0.0
 11
159.702285
 21
-734.331469
 31
0.0
 11
160.275764
 21
-738.675575
 31
0.0
  0
LWPOLYLINE
  5
115
100
AcDbEntity
  8
engraving
 62
7
100
AcDbPolyline
 90
4
 70
1
 10
-1.392700
 20
12.075218
 30
0.0
 10
-1.891466
 20
10.834383
 30
0.0
 10
-0.030220
 20
10.785721
 30
0.0
 10
-0.455995
 20
12.038724
 30
0.0
  0
ENDSEC
  0
SECTION
  2
OBJECTS
  0
DICTIONARY
  5
C
330
0
100
AcDbDictionary
  3
ACAD_GROUP
350
D
  3
ACAD_MLINESTYLE
350
17
  0
DICTIONARY
  5
D
330
C
100
AcDbDictionary
  0
DICTIONARY
  5
1A
330
C
100
AcDbDictionary
  0
DICTIONARY
  5
17
330
C
100
AcDbDictionary
  3
STANDARD
350
18
  0
DICTIONARY
  5
19
330
C
100
AcDbDictionary
  0
ENDSEC
  0
EOF
