<?xml version="1.0" encoding="UTF-8" standalone="no"?>
<!-- Created with Inkscape (http://www.inkscape.org/) -->

<svg
   width="210mm"
   height="297mm"
   viewBox="0 0 210 297"
   version="1.1"
   id="svg5"
   inkscape:version="1.1 (c4e8f9e, 2021-05-24)"
   sodipodi:docname="CaseGen_interface.svg"
   xmlns:inkscape="http://www.inkscape.org/namespaces/inkscape"
   xmlns:sodipodi="http://sodipodi.sourceforge.net/DTD/sodipodi-0.dtd"
   xmlns="http://www.w3.org/2000/svg"
   xmlns:svg="http://www.w3.org/2000/svg">
  <sodipodi:namedview
     id="namedview7"
     pagecolor="#ffffff"
     bordercolor="#666666"
     borderopacity="1.0"
     inkscape:pageshadow="2"
     inkscape:pageopacity="0.0"
     inkscape:pagecheckerboard="0"
     inkscape:document-units="mm"
     showgrid="false"
     inkscape:zoom="0.75187991"
     inkscape:cx="-89.774975"
     inkscape:cy="1072.6447"
     inkscape:window-width="1864"
     inkscape:window-height="1016"
     inkscape:window-x="56"
     inkscape:window-y="27"
     inkscape:window-maximized="1"
     inkscape:current-layer="layer5"
     inkscape:snap-global="false" />
  <defs
     id="defs2" />
  <g
     inkscape:groupmode="layer"
     id="layer4"
     inkscape:label="size">
    <rect
       style="fill:none;stroke:#ff0000;stroke-width:0.187406;stop-color:#000000"
       id="rect1113"
       width="54.812595"
       height="84.812592"
       x="269.59369"
       y="-42.406296"
       ry="4.4288058"
       transform="rotate(90)" />
  </g>
  <g
     inkscape:groupmode="layer"
     id="layer5"
     inkscape:label="drillHoles">
    <path
       id="path1370"
       style="opacity:1;fill:none;stroke:#800000;stroke-width:0.161872;stop-color:#000000"
       d="m 23.264656,310.62123 -0.09994,0.99136 -0.286626,0.92336 -0.453534,0.83558 -0.600662,0.72801 -0.728008,0.60066 -0.835574,0.45353 -0.92336,0.28663 -0.991363,0.0999 -0.991364,-0.0999 -0.923359,-0.28663 -0.835575,-0.45353 -0.728008,-0.60066 -0.600661,-0.72801 -0.453534,-0.83558 -0.286626,-0.92336 -0.09994,-0.99136 0.09994,-0.99136 0.286627,-0.92336 0.453534,-0.83557 0.600662,-0.72801 0.728008,-0.60066 0.835573,-0.45354 0.923358,-0.28662 0.991363,-0.1 0.991362,0.0999 0.923358,0.28662 0.835574,0.45354 0.728008,0.60066 0.600661,0.72801 0.453535,0.83557 0.286627,0.92336 z"
       sodipodi:nodetypes="ccccccccccccccccccccccccccccccccc" />
    <path
       id="rect1652"
       style="opacity:1;fill:none;stroke:#800000;stroke-width:0.254141;stop-color:#000000"
       d="m 7.2596843,277.85566 h 5.5429517 5.542953 5.542954 5.542953 l 0.381788,0.0767 0.311116,0.20942 0.209419,0.31112 0.0767,0.38178 v 3.32081 3.32083 3.32081 3.32082 l -0.0767,0.38179 -0.209419,0.31111 -0.311116,0.20942 -0.381788,0.0767 H 23.888543 18.345589 12.802636 7.2596843 l -0.3817886,-0.0767 -0.3111155,-0.20942 -0.2094195,-0.31111 -0.0767,-0.38179 v -3.32082 -3.32081 -3.32083 -3.32081 l 0.0767,-0.38178 0.2094195,-0.31112 0.3111155,-0.20942 z"
       sodipodi:nodetypes="ccccccccccccccccccccccccccccccccc" />
    <path
       id="path6229"
       style="opacity:1;fill:none;stroke:#800000;stroke-width:0.0501762;stop-color:#000000"
       d="m -20.07649,285.59892 -0.03098,0.3073 -0.08885,0.28621 -0.140583,0.25902 -0.18619,0.22566 -0.225664,0.18619 -0.259007,0.14058 -0.286218,0.0889 -0.307296,0.031 -0.307299,-0.031 -0.286217,-0.0889 -0.259008,-0.14058 -0.225663,-0.18619 -0.18619,-0.22566 -0.140583,-0.25902 -0.08885,-0.28621 -0.03098,-0.3073 0.03098,-0.3073 0.08885,-0.28621 0.140584,-0.25901 0.18619,-0.22566 0.225664,-0.18619 0.259006,-0.14059 0.286217,-0.0889 0.307298,-0.031 0.307296,0.031 0.286218,0.0889 0.259007,0.14059 0.225664,0.18619 0.186189,0.22566 0.140584,0.25901 0.08885,0.28621 z"
       sodipodi:nodetypes="ccccccccccccccccccccccccccccccccc" />
  </g>
  <g
     inkscape:groupmode="layer"
     id="layer6"
     inkscape:label="engraving">
    <g
       aria-label="UROs"
       id="g6612"
       style="font-size:39.3283px;line-height:1.25;font-family:'Ubuntu Condensed';-inkscape-font-specification:'Ubuntu Condensed, ';letter-spacing:0px;word-spacing:0px;display:inline;fill:#ffffff;stroke:#666666;stroke-width:0.754921;stroke-miterlimit:4;stroke-dasharray:none"
       transform="matrix(0.3386113,0,0,0.31338748,-55.332273,201.476)">
      <path
         d="m 74.72845,255.18941 7.275736,5.30932 0.668581,9.16349 -4.090143,4.56208 7.275735,6.41052 -8.534241,3.69686 -8.927524,-7.62969 1.337162,7.59036 h -9.045509 l -2.281041,-27.84444 z m -6.331856,8.14096 -0.23597,5.58461 2.399026,0.31463 2.399027,-3.46089 z"
         style="font-family:'Super Mario 256';-inkscape-font-specification:'Super Mario 256, ';fill:#ffffff;stroke:#666666;stroke-width:0.754921;stroke-miterlimit:4;stroke-dasharray:none"
         id="path6604" />
      <path
         d="m 143.39555,262.38649 -5.07335,6.2532 -5.93858,-3.81485 -1.49447,1.88776 10.61864,7.787 -5.15201,9.71409 H 123.7314 l -8.80954,-7.00043 3.81484,-6.41052 7.59037,4.28679 1.14052,-1.76978 -11.12991,-6.60715 10.53998,-11.79849 h 9.47812 z"
         style="font-family:'Super Mario 256';-inkscape-font-specification:'Super Mario 256, ';fill:#ffffff;stroke:#666666;stroke-width:0.754921;stroke-miterlimit:4;stroke-dasharray:none"
         id="path6606" />
      <path
         style="fill:#ffffff;stroke:#666666;stroke-width:0.754921;stroke-linecap:butt;stroke-linejoin:miter;stroke-miterlimit:4;stroke-dasharray:none;stroke-opacity:1"
         d="m 124.23115,246.25415 3.05951,-4.0471 4.45203,5.95064 4.86624,-5.4056 2.95635,5.24031 -7.79256,5.45207 z"
         id="path6608" />
      <path
         style="fill:#ffffff;stroke:#666666;stroke-width:0.754921;stroke-miterlimit:4;stroke-dasharray:none"
         d="m 80.982839,297.60678 0.10656,-0.58583 0.49458,-1.08369 1.26531,-2.32225 2.41875,-4.30153 1.02796,-1.82289 1.02797,-1.82289 1.02796,-1.82289 1.02796,-1.82289 0.13736,0.0943 0.13737,0.0943 0.13736,0.0943 0.13736,0.0943 0.13736,0.0943 0.13737,0.0943 0.13736,0.0943 0.13736,0.0943 0.13298,-0.23466 0.13299,-0.23466 0.13298,-0.23466 0.13298,-0.23466 0.13299,-0.23466 0.13299,-0.23466 0.13299,-0.23465 0.13299,-0.23466 -0.0502,-0.0436 -0.0502,-0.0436 -0.0501,-0.0436 -0.0502,-0.0436 -0.12819,-0.11929 -0.20069,-0.19568 -0.24569,-0.24494 -0.26319,-0.26707 -2.30018,-3.0722 -1.49056,-3.58071 -0.62391,-3.88761 0.2998,-3.9929 0.95362,-3.13652 1.53077,-2.80716 2.03551,-2.37265 2.46785,-1.83299 0.77212,-0.42216 0.698841,-0.32754 0.72125,-0.27343 0.83934,-0.2598 1.633,-0.36163 1.61657,-0.14095 1.62081,0.0794 1.64577,0.29927 2.54123,0.92246 2.34527,1.44069 2.06165,1.89264 1.6904,2.2783 1.03005,2.03659 0.74646,2.19625 0.44604,2.2926 0.1288,2.3256 -0.48786,3.77267 -1.29386,3.46204 -2.02288,3.00145 -2.67495,2.39086 -1.00634,0.63245 -1.00477,0.51195 -1.05017,0.41257 -1.14252,0.33433 -0.79675,0.18384 -0.7008,0.1227 -0.68133,0.0722 -0.73829,0.0323 -1.57751,-0.0811 -1.62111,-0.29118 -1.58016,-0.48082 -1.454641,-0.6501 -0.0573,-0.0306 -0.0573,-0.0306 -0.0573,-0.0306 -0.0573,-0.0306 -0.13231,0.23512 -0.13231,0.23513 -0.13232,0.23513 -0.13231,0.23512 -0.13232,0.23512 -0.13232,0.23512 -0.13233,0.23512 -0.13232,0.23512 0.13671,0.0954 0.1367,0.0954 0.1367,0.0954 0.13671,0.0954 0.13672,0.0954 0.13673,0.0954 0.13672,0.0954 0.13672,0.0954 -1.02994,1.82227 -1.02993,1.82228 -1.02994,1.82228 -1.02994,1.82227 -2.30532,4.0708 -1.27976,2.22121 -0.61485,0.98127 -0.31062,0.35094 -1.24088,0.58465 -1.27172,-0.1486 -1.06515,-0.78683 -0.62113,-1.33004 -0.0355,-0.20466 -0.0258,-0.21273 -0.0136,-0.19565 8.2e-4,-0.1534 -1.4e-4,-3e-5 -1.4e-4,-3e-5 -1.5e-4,-4e-5 z m 8.26365,-24.9951 0.38311,1.09887 0.45729,1.01325 0.55415,0.97227 0.6737,0.97593 0.61985,0.77624 0.62759,0.66574 0.68669,0.60489 0.79715,0.59372 2.874781,1.44009 3.0406,0.50964 3.04673,-0.42309 2.89319,-1.35809 2.49012,-2.24331 1.77643,-2.87876 0.98004,-3.32799 0.10094,-3.59098 -0.13895,-0.90971 -0.23322,-1.03134 -0.29292,-1.01839 -0.31805,-0.87087 -1.99701,-3.27767 -2.73235,-2.38915 -3.25837,-1.36929 -3.57508,-0.21813 -0.80421,0.14218 -0.94266,0.24588 -0.91875,0.30184 -0.73249,0.31001 -1.683511,1.04919 -1.48899,1.32317 -1.26216,1.56323 -1.00303,1.7694 -0.79434,2.27333 -0.37289,2.42155 0.0556,2.46198 0.491,2.39463 2e-5,-6e-5 1e-5,-7e-5 2e-5,-6e-5 z m 12.232281,5.85731 0.0818,-0.2258 0.16824,-0.18453 0.26109,-0.14824 0.36037,-0.11693 0.48866,-0.15582 0.53951,-0.23196 0.56335,-0.29515 0.56018,-0.34538 0.41746,-0.26099 0.29038,-0.12766 0.21708,-0.009 0.19757,0.0961 0.18317,0.19322 0.10196,0.24995 0.0132,0.2714 -0.0832,0.25758 -0.47228,0.4492 -0.85476,0.52466 -1.02759,0.48738 -0.99076,0.33741 -0.34468,0.0634 -0.25279,-0.0126 -0.18596,-0.0948 -0.14423,-0.18312 -0.0793,-0.1425 -0.0349,-0.10049 7.5e-4,-0.11323 0.0276,-0.18076 -4.8e-4,-4.2e-4 -4.9e-4,-4.3e-4 -4.8e-4,-4.2e-4 z m 2.73509,-18.48033 0.0432,-0.0811 0.0505,-0.10504 0.0729,-0.0861 0.0796,-0.0666 0.23387,-0.10112 0.25409,0.0237 0.31915,0.16284 0.42903,0.31639 1.81984,1.88114 1.32231,2.28525 0.77154,2.5661 0.16758,2.72366 -0.0462,0.63908 -0.0634,0.41704 -0.0954,0.25789 -0.14226,0.1616 -0.17963,0.10884 -0.17736,0.0382 -0.18134,-0.0322 -0.19158,-0.1024 -0.16002,-0.16165 -0.0882,-0.23655 -0.0239,-0.35103 0.0327,-0.50512 0.0479,-0.74745 -0.0175,-0.70394 -0.0892,-0.7466 -0.1673,-0.87546 -0.14091,-0.62649 -0.12274,-0.45596 -0.13666,-0.3898 -0.18263,-0.42804 -0.31315,-0.64024 -0.34929,-0.60654 -0.38351,-0.56975 -0.41582,-0.52984 -0.31312,-0.35693 -0.2964,-0.30166 -0.34914,-0.31249 -0.47132,-0.38938 -0.33096,-0.29467 -0.18678,-0.24837 -0.0927,-0.28384 0.0643,-0.24541 -1e-5,10e-6 -2e-5,2e-5 -1e-5,10e-6 z"
         id="path6610"
         sodipodi:nodetypes="cccccccccccccccccccccccccccccccccccccccccccccccccccccccccccccccccccccccccccccccccccccccccccccccccccccccccccccccccccccccccccccccccccccccccccccccccccccccccccccccccccccccccccccccccccccccccccccccccccccccccccccccccccccccccccccccccccccccccccc" />
      <g
         aria-label="A"
         transform="scale(0.96203327,1.0394651)"
         id="text6946"
         style="font-size:37.344px">
        <path
           d="m 171.14761,246.38516 11.80071,25.73002 -11.27789,1.79251 -0.89626,-6.60989 -9.07459,-0.22406 -2.05392,7.05802 -10.8671,-1.94189 14.90025,-25.05783 z m -5.56425,9.78413 -1.53111,3.80909 5.71364,0.14938 -1.30704,-3.84644 z"
           style="font-family:'Super Mario 256';-inkscape-font-specification:'Super Mario 256, '"
           id="path5849" />
      </g>
    </g>
  </g>
  <g
     inkscape:label="Wall"
     inkscape:groupmode="layer"
     id="layer1"
     style="display:inline" />
  <g
     inkscape:groupmode="layer"
     id="layer2"
     inkscape:label="Base"
     style="display:inline" />
  <g
     inkscape:groupmode="layer"
     id="layer3"
     inkscape:label="Support" />
</svg>
