  0
SECTION
  2
HEADER
  9
$ACADVER
  1
AC1014
  9
$HANDSEED
  5
FFFF
  9
$MEASUREMENT
 70
     1
  0
ENDSEC
  0
SECTION
  2
TABLES
  0
TABLE
  2
VPORT
  5
8
330
0
100
AcDbSymbolTable
 70
     4
  0
VPORT
  5
2E
330
8
100
AcDbSymbolTableRecord
100
AcDbViewportTableRecord
  2
*ACTIVE
 70
     0
 10
0.0
 20
0.0
 11
1.0
 21
1.0
 12
210.0
 22
148.5
 13
0.0
 23
0.0
 14
10.0
 24
10.0
 15
10.0
 25
10.0
 16
0.0
 26
0.0
 36
1.0
 17
0.0
 27
0.0
 37
0.0
 40
341.0
 41
1.24
 42
50.0
 43
0.0
 44
0.0
 50
0.0
 51
0.0
 71
     0
 72
   100
 73
     1
 74
     3
 75
     0
 76
     0
 77
     0
 78
     0
  0
ENDTAB
  0
TABLE
  2
LTYPE
  5
5
330
0
100
AcDbSymbolTable
 70
     1
  0
LTYPE
  5
14
330
5
100
AcDbSymbolTableRecord
100
AcDbLinetypeTableRecord
  2
BYBLOCK
 70
     0
  3

 72
    65
 73
     0
 40
0.0
  0
LTYPE
  5
15
330
5
100
AcDbSymbolTableRecord
100
AcDbLinetypeTableRecord
  2
BYLAYER
 70
     0
  3

 72
    65
 73
     0
 40
0.0
  0
LTYPE
  5
16
330
5
100
AcDbSymbolTableRecord
100
AcDbLinetypeTableRecord
  2
CONTINUOUS
 70
     0
  3
Solid line
 72
    65
 73
     0
 40
0.0
  0
ENDTAB
  0
TABLE
  2
LAYER
  5
2
100
AcDbSymbolTable
 70
7
  0
LAYER
  5
50
100
AcDbSymbolTableRecord
100
AcDbLayerTableRecord
  2
0
 70
0
  6
CONTINUOUS
  0
LAYER
  5
51
100
AcDbSymbolTableRecord
100
AcDbLayerTableRecord
  2
size
 70
0
  6
CONTINUOUS
  0
LAYER
  5
52
100
AcDbSymbolTableRecord
100
AcDbLayerTableRecord
  2
drillHoles
 70
0
  6
CONTINUOUS
  0
LAYER
  5
53
100
AcDbSymbolTableRecord
100
AcDbLayerTableRecord
  2
engraving
 70
0
  6
CONTINUOUS
  0
LAYER
  5
54
100
AcDbSymbolTableRecord
100
AcDbLayerTableRecord
  2
Wall
 70
0
  6
CONTINUOUS
  0
LAYER
  5
55
100
AcDbSymbolTableRecord
100
AcDbLayerTableRecord
  2
Base
 70
0
  6
CONTINUOUS
  0
LAYER
  5
56
100
AcDbSymbolTableRecord
100
AcDbLayerTableRecord
  2
Support
 70
0
  6
CONTINUOUS
  0
ENDTAB
  0
TABLE
  2
STYLE
  5
3
330
0
100
AcDbSymbolTable
 70
     1
  0
STYLE
  5
11
330
3
100
AcDbSymbolTableRecord
100
AcDbTextStyleTableRecord
  2
STANDARD
 70
     0
 40
0.0
 41
1.0
 50
0.0
 71
     0
 42
2.5
  3
txt
  4

  0
ENDTAB
  0
TABLE
  2
VIEW
  5
6
330
0
100
AcDbSymbolTable
 70
     0
  0
ENDTAB
  0
TABLE
  2
UCS
  5
7
330
0
100
AcDbSymbolTable
 70
     0
  0
ENDTAB
  0
TABLE
  2
APPID
  5
9
330
0
100
AcDbSymbolTable
 70
     2
  0
APPID
  5
12
330
9
100
AcDbSymbolTableRecord
100
AcDbRegAppTableRecord
  2
ACAD
 70
     0
  0
ENDTAB
  0
TABLE
  2
DIMSTYLE
  5
A
330
0
100
AcDbSymbolTable
 70
     1
  0
DIMSTYLE
105
27
330
A
100
AcDbSymbolTableRecord
100
AcDbDimStyleTableRecord
  2
ISO-25
 70
     0
  3

  4

  5

  6

  7

 40
1.0
 41
2.5
 42
0.625
 43
3.75
 44
1.25
 45
0.0
 46
0.0
 47
0.0
 48
0.0
140
2.5
141
2.5
142
0.0
143
0.03937007874016
144
1.0
145
0.0
146
1.0
147
0.625
 71
     0
 72
     0
 73
     0
 74
     0
 75
     0
 76
     0
 77
     1
 78
     8
170
     0
171
     3
172
     1
173
     0
174
     0
175
     0
176
     0
177
     0
178
     0
270
     2
271
     2
272
     2
273
     2
274
     3
340
11
275
     0
280
     0
281
     0
282
     0
283
     0
284
     8
285
     0
286
     0
287
     3
288
     0
  0
ENDTAB
  0
TABLE
  2
BLOCK_RECORD
  5
1
330
0
100
AcDbSymbolTable
 70
     1
  0
BLOCK_RECORD
  5
1F
330
1
100
AcDbSymbolTableRecord
100
AcDbBlockTableRecord
  2
*MODEL_SPACE
  0
BLOCK_RECORD
  5
1B
330
1
100
AcDbSymbolTableRecord
100
AcDbBlockTableRecord
  2
*PAPER_SPACE
  0
ENDTAB
  0
ENDSEC
  0
SECTION
  2
BLOCKS
  0
BLOCK
  5
20
330
1F
100
AcDbEntity
  8
0
100
AcDbBlockBegin
  2
*MODEL_SPACE
 70
     0
 10
0.0
 20
0.0
 30
0.0
  3
*MODEL_SPACE
  1

  0
ENDBLK
  5
21
330
1F
100
AcDbEntity
  8
0
100
AcDbBlockEnd
  0
BLOCK
  5
1C
330
1B
100
AcDbEntity
 67
     1
  8
0
100
AcDbBlockBegin
  2
*PAPER_SPACE
  1

  0
ENDBLK
  5
1D
330
1B
100
AcDbEntity
 67
     1
  8
0
100
AcDbBlockEnd
  0
ENDSEC
  0
SECTION
  2
ENTITIES
  0
LWPOLYLINE
  5
100
100
AcDbEntity
  8
size
 62
1
100
AcDbPolyline
 90
2
 70
0
 10
160.275764
 20
-738.675575
 30
0.0
 10
160.275764
 20
-912.363701
 30
0.0
  0
SPLINE
  5
101
100
AcDbEntity
  8
size
 62
1
100
AcDbSpline
 70
0
 71
3
 72
13
 73
9
 74
7
 40
0.000000
 40
0.000000
 40
0.000000
 40
0.000000
 40
4.381796
 40
8.727330
 40
13.109126
 40
17.490922
 40
21.836457
 40
26.218252
 40
26.218252
 40
26.218252
 40
26.218252
 10
160.275764
 20
-912.363701
 30
0.0
 10
160.164180
 20
-913.828567
 30
0.0
 10
159.941933
 20
-916.746177
 30
0.0
 10
158.185612
 20
-920.827784
 30
0.0
 10
155.513543
 20
-924.340273
 30
0.0
 10
152.001053
 20
-927.012342
 30
0.0
 10
147.919447
 20
-928.768663
 30
0.0
 10
145.001837
 20
-928.990910
 30
0.0
 10
143.536971
 20
-929.102494
 30
0.0
 11
160.275764
 21
-912.363701
 31
0.0
 11
159.702285
 21
-916.707807
 31
0.0
 11
158.039320
 21
-920.722557
 31
0.0
 11
155.373085
 21
-924.199815
 31
0.0
 11
151.895827
 21
-926.866050
 31
0.0
 11
147.881077
 21
-928.529015
 31
0.0
 11
143.536971
 21
-929.102494
 31
0.0
  0
LWPOLYLINE
  5
102
100
AcDbEntity
  8
size
 62
1
100
AcDbPolyline
 90
2
 70
0
 10
143.536971
 20
-929.102494
 30
0.0
 10
-143.536971
 20
-929.102494
 30
0.0
  0
SPLINE
  5
103
100
AcDbEntity
  8
size
 62
1
100
AcDbSpline
 70
0
 71
3
 72
13
 73
9
 74
7
 40
0.000000
 40
0.000000
 40
0.000000
 40
0.000000
 40
4.381796
 40
8.727330
 40
13.109126
 40
17.490922
 40
21.836457
 40
26.218252
 40
26.218252
 40
26.218252
 40
26.218252
 10
-143.536971
 20
-929.102494
 30
0.0
 10
-145.001837
 20
-928.990910
 30
0.0
 10
-147.919447
 20
-928.768663
 30
0.0
 10
-152.001053
 20
-927.012342
 30
0.0
 10
-155.513543
 20
-924.340273
 30
0.0
 10
-158.185612
 20
-920.827784
 30
0.0
 10
-159.941933
 20
-916.746177
 30
0.0
 10
-160.164180
 20
-913.828567
 30
0.0
 10
-160.275764
 20
-912.363701
 30
0.0
 11
-143.536971
 21
-929.102494
 31
0.0
 11
-147.881077
 21
-928.529015
 31
0.0
 11
-151.895827
 21
-926.866050
 31
0.0
 11
-155.373085
 21
-924.199815
 31
0.0
 11
-158.039320
 21
-920.722557
 31
0.0
 11
-159.702285
 21
-916.707807
 31
0.0
 11
-160.275764
 21
-912.363701
 31
0.0
  0
LWPOLYLINE
  5
104
100
AcDbEntity
  8
size
 62
1
100
AcDbPolyline
 90
2
 70
0
 10
-160.275764
 20
-912.363701
 30
0.0
 10
-160.275764
 20
-738.675575
 30
0.0
  0
SPLINE
  5
105
100
AcDbEntity
  8
size
 62
1
100
AcDbSpline
 70
0
 71
3
 72
13
 73
9
 74
7
 40
0.000000
 40
0.000000
 40
0.000000
 40
0.000000
 40
4.381796
 40
8.727330
 40
13.109126
 40
17.490922
 40
21.836457
 40
26.218252
 40
26.218252
 40
26.218252
 40
26.218252
 10
-160.275764
 20
-738.675575
 30
0.0
 10
-160.164180
 20
-737.210709
 30
0.0
 10
-159.941933
 20
-734.293099
 30
0.0
 10
-158.185612
 20
-730.211492
 30
0.0
 10
-155.513543
 20
-726.699003
 30
0.0
 10
-152.001053
 20
-724.026934
 30
0.0
 10
-147.919447
 20
-722.270612
 30
0.0
 10
-145.001837
 20
-722.048366
 30
0.0
 10
-143.536971
 20
-721.936781
 30
0.0
 11
-160.275764
 21
-738.675575
 31
0.0
 11
-159.702285
 21
-734.331469
 31
0.0
 11
-158.039320
 21
-730.316718
 31
0.0
 11
-155.373085
 21
-726.839460
 31
0.0
 11
-151.895827
 21
-724.173225
 31
0.0
 11
-147.881077
 21
-722.510261
 31
0.0
 11
-143.536971
 21
-721.936781
 31
0.0
  0
LWPOLYLINE
  5
106
100
AcDbEntity
  8
size
 62
1
100
AcDbPolyline
 90
2
 70
0
 10
-143.536971
 20
-721.936781
 30
0.0
 10
143.536971
 20
-721.936781
 30
0.0
  0
LWPOLYLINE
  5
107
100
AcDbEntity
  8
size
 62
1
100
AcDbPolyline
 90
1
 70
1
 10
160.275764
 20
-738.675575
 30
0.0
  0
LWPOLYLINE
  5
108
100
AcDbEntity
  8
drillHoles
 62
1
100
AcDbPolyline
 90
32
 70
1
 10
23.264656
 20
-13.621230
 30
0.0
 10
23.164716
 20
-14.612590
 30
0.0
 10
22.878090
 20
-15.535950
 30
0.0
 10
22.424556
 20
-16.371530
 30
0.0
 10
21.823894
 20
-17.099540
 30
0.0
 10
21.095886
 20
-17.700200
 30
0.0
 10
20.260312
 20
-18.153730
 30
0.0
 10
19.336952
 20
-18.440360
 30
0.0
 10
18.345589
 20
-18.540260
 30
0.0
 10
17.354225
 20
-18.440360
 30
0.0
 10
16.430866
 20
-18.153730
 30
0.0
 10
15.595291
 20
-17.700200
 30
0.0
 10
14.867283
 20
-17.099540
 30
0.0
 10
14.266622
 20
-16.371530
 30
0.0
 10
13.813088
 20
-15.535950
 30
0.0
 10
13.526462
 20
-14.612590
 30
0.0
 10
13.426522
 20
-13.621230
 30
0.0
 10
13.526462
 20
-12.629870
 30
0.0
 10
13.813089
 20
-11.706510
 30
0.0
 10
14.266623
 20
-10.870940
 30
0.0
 10
14.867285
 20
-10.142930
 30
0.0
 10
15.595293
 20
-9.542270
 30
0.0
 10
16.430866
 20
-9.088730
 30
0.0
 10
17.354224
 20
-8.802110
 30
0.0
 10
18.345587
 20
-8.702110
 30
0.0
 10
19.336949
 20
-8.802010
 30
0.0
 10
20.260307
 20
-9.088630
 30
0.0
 10
21.095881
 20
-9.542170
 30
0.0
 10
21.823889
 20
-10.142830
 30
0.0
 10
22.424550
 20
-10.870840
 30
0.0
 10
22.878085
 20
-11.706410
 30
0.0
 10
23.164712
 20
-12.629770
 30
0.0
  0
LWPOLYLINE
  5
109
100
AcDbEntity
  8
drillHoles
 62
1
100
AcDbPolyline
 90
32
 70
1
 10
7.259684
 20
19.144340
 30
0.0
 10
12.802636
 20
19.144340
 30
0.0
 10
18.345589
 20
19.144340
 30
0.0
 10
23.888543
 20
19.144340
 30
0.0
 10
29.431496
 20
19.144340
 30
0.0
 10
29.813284
 20
19.067640
 30
0.0
 10
30.124400
 20
18.858220
 30
0.0
 10
30.333819
 20
18.547100
 30
0.0
 10
30.410519
 20
18.165320
 30
0.0
 10
30.410519
 20
14.844510
 30
0.0
 10
30.410519
 20
11.523680
 30
0.0
 10
30.410519
 20
8.202870
 30
0.0
 10
30.410519
 20
4.882050
 30
0.0
 10
30.333819
 20
4.500260
 30
0.0
 10
30.124400
 20
4.189150
 30
0.0
 10
29.813284
 20
3.979730
 30
0.0
 10
29.431496
 20
3.903030
 30
0.0
 10
23.888543
 20
3.903030
 30
0.0
 10
18.345589
 20
3.903030
 30
0.0
 10
12.802636
 20
3.903030
 30
0.0
 10
7.259684
 20
3.903030
 30
0.0
 10
6.877896
 20
3.979730
 30
0.0
 10
6.566780
 20
4.189150
 30
0.0
 10
6.357361
 20
4.500260
 30
0.0
 10
6.280661
 20
4.882050
 30
0.0
 10
6.280661
 20
8.202870
 30
0.0
 10
6.280661
 20
11.523680
 30
0.0
 10
6.280661
 20
14.844510
 30
0.0
 10
6.280661
 20
18.165320
 30
0.0
 10
6.357361
 20
18.547100
 30
0.0
 10
6.566780
 20
18.858220
 30
0.0
 10
6.877896
 20
19.067640
 30
0.0
  0
LWPOLYLINE
  5
10a
100
AcDbEntity
  8
drillHoles
 62
1
100
AcDbPolyline
 90
32
 70
1
 10
-20.076490
 20
11.401080
 30
0.0
 10
-20.107470
 20
11.093780
 30
0.0
 10
-20.196320
 20
10.807570
 30
0.0
 10
-20.336903
 20
10.548550
 30
0.0
 10
-20.523093
 20
10.322890
 30
0.0
 10
-20.748757
 20
10.136700
 30
0.0
 10
-21.007764
 20
9.996120
 30
0.0
 10
-21.293982
 20
9.907220
 30
0.0
 10
-21.601278
 20
9.876220
 30
0.0
 10
-21.908577
 20
9.907220
 30
0.0
 10
-22.194794
 20
9.996120
 30
0.0
 10
-22.453802
 20
10.136700
 30
0.0
 10
-22.679465
 20
10.322890
 30
0.0
 10
-22.865655
 20
10.548550
 30
0.0
 10
-23.006238
 20
10.807570
 30
0.0
 10
-23.095088
 20
11.093780
 30
0.0
 10
-23.126068
 20
11.401080
 30
0.0
 10
-23.095088
 20
11.708380
 30
0.0
 10
-23.006238
 20
11.994590
 30
0.0
 10
-22.865654
 20
12.253600
 30
0.0
 10
-22.679464
 20
12.479260
 30
0.0
 10
-22.453800
 20
12.665450
 30
0.0
 10
-22.194794
 20
12.806040
 30
0.0
 10
-21.908577
 20
12.894940
 30
0.0
 10
-21.601279
 20
12.925940
 30
0.0
 10
-21.293983
 20
12.894940
 30
0.0
 10
-21.007765
 20
12.806040
 30
0.0
 10
-20.748758
 20
12.665450
 30
0.0
 10
-20.523094
 20
12.479260
 30
0.0
 10
-20.336905
 20
12.253600
 30
0.0
 10
-20.196321
 20
11.994590
 30
0.0
 10
-20.107471
 20
11.708380
 30
0.0
  0
LWPOLYLINE
  5
10b
100
AcDbEntity
  8
engraving
 62
1
100
AcDbPolyline
 90
10
 70
1
 10
-30.028425
 20
15.550956
 30
0.0
 10
-27.564781
 20
13.887085
 30
0.0
 10
-27.338392
 20
11.015366
 30
0.0
 10
-28.723359
 20
9.585669
 30
0.0
 10
-26.259715
 20
7.576696
 30
0.0
 10
-29.149503
 20
6.418148
 30
0.0
 10
-32.172461
 20
8.809193
 30
0.0
 10
-31.719683
 20
6.430473
 30
0.0
 10
-34.782592
 20
6.430473
 30
0.0
 10
-35.554978
 20
15.156559
 30
0.0
  0
LWPOLYLINE
  5
10c
100
AcDbEntity
  8
engraving
 62
1
100
AcDbPolyline
 90
4
 70
1
 10
-32.172461
 20
12.999685
 30
0.0
 10
-32.252363
 20
11.249541
 30
0.0
 10
-31.440026
 20
11.150940
 30
0.0
 10
-30.627689
 20
12.235538
 30
0.0
  0
LWPOLYLINE
  5
10d
100
AcDbEntity
  8
engraving
 62
1
100
AcDbPolyline
 90
14
 70
1
 10
-6.776989
 20
13.295485
 30
0.0
 10
-8.494882
 20
11.335813
 30
0.0
 10
-10.505750
 20
12.531338
 30
0.0
 10
-11.011794
 20
11.939738
 30
0.0
 10
-7.416206
 20
9.499394
 30
0.0
 10
-9.160733
 20
6.455124
 30
0.0
 10
-13.435487
 20
6.455124
 30
0.0
 10
-16.418494
 20
8.648968
 30
0.0
 10
-15.126747
 20
10.657942
 30
0.0
 10
-12.556565
 20
9.314517
 30
0.0
 10
-12.170372
 20
9.869144
 30
0.0
 10
-15.939082
 20
11.939738
 30
0.0
 10
-12.370129
 20
15.637232
 30
0.0
 10
-9.160733
 20
15.637232
 30
0.0
  0
LWPOLYLINE
  5
10e
100
AcDbEntity
  8
engraving
 62
1
100
AcDbPolyline
 90
6
 70
1
 10
-13.266266
 20
18.351151
 30
0.0
 10
-12.230282
 20
19.619459
 30
0.0
 10
-10.722776
 20
17.754606
 30
0.0
 10
-9.075014
 20
19.448651
 30
0.0
 10
-8.073961
 20
17.806406
 30
0.0
 10
-10.712608
 20
16.097798
 30
0.0
  0
LWPOLYLINE
  5
10f
100
AcDbEntity
  8
engraving
 62
1
100
AcDbPolyline
 90
112
 70
1
 10
-27.910620
 20
2.257904
 30
0.0
 10
-27.874538
 20
2.441496
 30
0.0
 10
-27.707067
 20
2.781110
 30
0.0
 10
-27.278619
 20
3.508873
 30
0.0
 10
-26.459604
 20
4.856916
 30
0.0
 10
-26.111525
 20
5.428186
 30
0.0
 10
-25.763444
 20
5.999457
 30
0.0
 10
-25.415365
 20
6.570727
 30
0.0
 10
-25.067286
 20
7.141997
 30
0.0
 10
-25.020775
 20
7.112444
 30
0.0
 10
-24.974260
 20
7.082892
 30
0.0
 10
-24.927748
 20
7.053339
 30
0.0
 10
-24.881237
 20
7.023787
 30
0.0
 10
-24.834725
 20
6.994235
 30
0.0
 10
-24.788210
 20
6.964682
 30
0.0
 10
-24.741698
 20
6.935130
 30
0.0
 10
-24.695187
 20
6.905577
 30
0.0
 10
-24.650158
 20
6.979117
 30
0.0
 10
-24.605126
 20
7.052656
 30
0.0
 10
-24.560098
 20
7.126196
 30
0.0
 10
-24.515069
 20
7.199735
 30
0.0
 10
-24.470038
 20
7.273274
 30
0.0
 10
-24.425006
 20
7.346814
 30
0.0
 10
-24.379974
 20
7.420350
 30
0.0
 10
-24.334942
 20
7.493889
 30
0.0
 10
-24.351940
 20
7.507553
 30
0.0
 10
-24.368938
 20
7.521217
 30
0.0
 10
-24.385903
 20
7.534880
 30
0.0
 10
-24.402901
 20
7.548544
 30
0.0
 10
-24.446308
 20
7.585928
 30
0.0
 10
-24.514264
 20
7.647252
 30
0.0
 10
-24.597457
 20
7.724013
 30
0.0
 10
-24.686576
 20
7.807709
 30
0.0
 10
-25.465442
 20
8.770496
 30
0.0
 10
-25.970162
 20
9.892644
 30
0.0
 10
-26.181425
 20
11.110971
 30
0.0
 10
-26.079909
 20
12.362294
 30
0.0
 10
-25.757003
 20
13.345238
 30
0.0
 10
-25.238668
 20
14.224966
 30
0.0
 10
-24.549422
 20
14.968523
 30
0.0
 10
-23.713780
 20
15.542959
 30
0.0
 10
-23.452332
 20
15.675258
 30
0.0
 10
-23.215697
 20
15.777905
 30
0.0
 10
-22.971474
 20
15.863594
 30
0.0
 10
-22.687264
 20
15.945012
 30
0.0
 10
-22.134312
 20
16.058342
 30
0.0
 10
-21.586924
 20
16.102514
 30
0.0
 10
-21.038100
 20
16.077631
 30
0.0
 10
-20.480824
 20
15.983844
 30
0.0
 10
-19.620335
 20
15.694757
 30
0.0
 10
-18.826201
 20
15.243264
 30
0.0
 10
-18.128104
 20
14.650135
 30
0.0
 10
-17.555716
 20
13.936145
 30
0.0
 10
-17.206929
 20
13.297904
 30
0.0
 10
-16.954170
 20
12.609628
 30
0.0
 10
-16.803136
 20
11.891157
 30
0.0
 10
-16.759523
 20
11.162344
 30
0.0
 10
-16.924718
 20
9.980039
 30
0.0
 10
-17.362833
 20
8.895080
 30
0.0
 10
-18.047802
 20
7.954465
 30
0.0
 10
-18.953570
 20
7.205200
 30
0.0
 10
-19.294327
 20
7.006999
 30
0.0
 10
-19.634554
 20
6.846560
 30
0.0
 10
-19.990153
 20
6.717266
 30
0.0
 10
-20.377023
 20
6.612492
 30
0.0
 10
-20.646811
 20
6.554879
 30
0.0
 10
-20.884109
 20
6.516426
 30
0.0
 10
-21.114815
 20
6.493799
 30
0.0
 10
-21.364808
 20
6.483677
 30
0.0
 10
-21.898971
 20
6.509093
 30
0.0
 10
-22.447896
 20
6.600345
 30
0.0
 10
-22.982956
 20
6.751027
 30
0.0
 10
-23.475513
 20
6.954760
 30
0.0
 10
-23.494916
 20
6.964350
 30
0.0
 10
-23.514318
 20
6.973940
 30
0.0
 10
-23.533721
 20
6.983529
 30
0.0
 10
-23.553123
 20
6.993119
 30
0.0
 10
-23.597925
 20
6.919435
 30
0.0
 10
-23.642726
 20
6.845749
 30
0.0
 10
-23.687531
 20
6.772062
 30
0.0
 10
-23.732333
 20
6.698378
 30
0.0
 10
-23.777138
 20
6.624695
 30
0.0
 10
-23.821943
 20
6.551011
 30
0.0
 10
-23.866751
 20
6.477328
 30
0.0
 10
-23.911556
 20
6.403644
 30
0.0
 10
-23.865265
 20
6.373747
 30
0.0
 10
-23.818977
 20
6.343850
 30
0.0
 10
-23.772689
 20
6.313953
 30
0.0
 10
-23.726397
 20
6.284056
 30
0.0
 10
-23.680102
 20
6.254159
 30
0.0
 10
-23.633804
 20
6.224262
 30
0.0
 10
-23.587509
 20
6.194364
 30
0.0
 10
-23.541214
 20
6.164467
 30
0.0
 10
-23.889963
 20
5.593392
 30
0.0
 10
-24.238709
 20
5.022313
 30
0.0
 10
-24.587458
 20
4.451234
 30
0.0
 10
-24.936207
 20
3.880158
 30
0.0
 10
-25.716813
 20
2.604422
 30
0.0
 10
-26.150154
 20
1.908324
 30
0.0
 10
-26.358349
 20
1.600807
 30
0.0
 10
-26.463529
 20
1.490827
 30
0.0
 10
-26.883704
 20
1.307605
 30
0.0
 10
-27.314323
 20
1.354174
 30
0.0
 10
-27.674994
 20
1.600757
 30
0.0
 10
-27.885316
 20
2.017574
 30
0.0
 10
-27.897336
 20
2.081712
 30
0.0
 10
-27.906072
 20
2.148378
 30
0.0
 10
-27.910677
 20
2.209693
 30
0.0
 10
-27.910400
 20
2.257766
 30
0.0
 10
-27.910447
 20
2.257776
 30
0.0
 10
-27.910495
 20
2.257785
 30
0.0
 10
-27.910545
 20
2.257797
 30
0.0
  0
LWPOLYLINE
  5
110
100
AcDbEntity
  8
engraving
 62
1
100
AcDbPolyline
 90
40
 70
1
 10
-25.112457
 20
10.091043
 30
0.0
 10
-24.982732
 20
9.746672
 30
0.0
 10
-24.827888
 20
9.429132
 30
0.0
 10
-24.640247
 20
9.124436
 30
0.0
 10
-24.412125
 20
8.818592
 30
0.0
 10
-24.202237
 20
8.575328
 30
0.0
 10
-23.989728
 20
8.366694
 30
0.0
 10
-23.757207
 20
8.177129
 30
0.0
 10
-23.487283
 20
7.991065
 30
0.0
 10
-22.513851
 20
7.539760
 30
0.0
 10
-21.484270
 20
7.380045
 30
0.0
 10
-20.452614
 20
7.512636
 30
0.0
 10
-19.472948
 20
7.938244
 30
0.0
 10
-18.629766
 20
8.641268
 30
0.0
 10
-18.028247
 20
9.543434
 30
0.0
 10
-17.696395
 20
10.586383
 30
0.0
 10
-17.662216
 20
11.711749
 30
0.0
 10
-17.709266
 20
11.996841
 30
0.0
 10
-17.788237
 20
12.320049
 30
0.0
 10
-17.887422
 20
12.639199
 30
0.0
 10
-17.995118
 20
12.912119
 30
0.0
 10
-18.671327
 20
13.939298
 30
0.0
 10
-19.596531
 20
14.688026
 30
0.0
 10
-20.699851
 20
15.117144
 30
0.0
 10
-21.910412
 20
15.185503
 30
0.0
 10
-22.182727
 20
15.140946
 30
0.0
 10
-22.501922
 20
15.063890
 30
0.0
 10
-22.813021
 20
14.969298
 30
0.0
 10
-23.061050
 20
14.872144
 30
0.0
 10
-23.631105
 20
14.543342
 30
0.0
 10
-24.135293
 20
14.128678
 30
0.0
 10
-24.562675
 20
13.638782
 30
0.0
 10
-24.902312
 20
13.084275
 30
0.0
 10
-25.171284
 20
12.371843
 30
0.0
 10
-25.297549
 20
11.612960
 30
0.0
 10
-25.278722
 20
10.841408
 30
0.0
 10
-25.112464
 20
10.090962
 30
0.0
 10
-25.112457
 20
10.090981
 30
0.0
 10
-25.112454
 20
10.091003
 30
0.0
 10
-25.112447
 20
10.091022
 30
0.0
  0
LWPOLYLINE
  5
111
100
AcDbEntity
  8
engraving
 62
1
100
AcDbPolyline
 90
32
 70
1
 10
-20.970472
 20
8.255439
 30
0.0
 10
-20.942774
 20
8.326201
 30
0.0
 10
-20.885806
 20
8.384031
 30
0.0
 10
-20.797398
 20
8.430487
 30
0.0
 10
-20.675373
 20
8.467132
 30
0.0
 10
-20.509907
 20
8.515964
 30
0.0
 10
-20.327223
 20
8.588657
 30
0.0
 10
-20.136467
 20
8.681153
 30
0.0
 10
-19.946783
 20
8.789391
 30
0.0
 10
-19.805427
 20
8.871181
 30
0.0
 10
-19.707101
 20
8.911188
 30
0.0
 10
-19.633595
 20
8.914009
 30
0.0
 10
-19.566696
 20
8.883892
 30
0.0
 10
-19.504673
 20
8.823340
 30
0.0
 10
-19.470148
 20
8.745009
 30
0.0
 10
-19.465678
 20
8.659955
 30
0.0
 10
-19.493851
 20
8.579233
 30
0.0
 10
-19.653770
 20
8.438460
 30
0.0
 10
-19.943201
 20
8.274038
 30
0.0
 10
-20.291154
 20
8.121300
 30
0.0
 10
-20.626636
 20
8.015560
 30
0.0
 10
-20.743349
 20
7.995691
 30
0.0
 10
-20.828946
 20
7.999640
 30
0.0
 10
-20.891914
 20
8.029349
 30
0.0
 10
-20.940752
 20
8.086736
 30
0.0
 10
-20.967604
 20
8.131394
 30
0.0
 10
-20.979422
 20
8.162886
 30
0.0
 10
-20.979168
 20
8.198371
 30
0.0
 10
-20.969822
 20
8.255019
 30
0.0
 10
-20.969985
 20
8.255150
 30
0.0
 10
-20.970151
 20
8.255285
 30
0.0
 10
-20.970313
 20
8.255417
 30
0.0
  0
LWPOLYLINE
  5
112
100
AcDbEntity
  8
engraving
 62
1
100
AcDbPolyline
 90
48
 70
1
 10
-20.044341
 20
14.046934
 30
0.0
 10
-20.029713
 20
14.072349
 30
0.0
 10
-20.012613
 20
14.105268
 30
0.0
 10
-19.987928
 20
14.132250
 30
0.0
 10
-19.960975
 20
14.153122
 30
0.0
 10
-19.881784
 20
14.184812
 30
0.0
 10
-19.795746
 20
14.177384
 30
0.0
 10
-19.687678
 20
14.126352
 30
0.0
 10
-19.542404
 20
14.027200
 30
0.0
 10
-18.926186
 20
13.437675
 30
0.0
 10
-18.478437
 20
12.721507
 30
0.0
 10
-18.217186
 20
11.917325
 30
0.0
 10
-18.160441
 20
11.063765
 30
0.0
 10
-18.176085
 20
10.863486
 30
0.0
 10
-18.197553
 20
10.732791
 30
0.0
 10
-18.229856
 20
10.651972
 30
0.0
 10
-18.278027
 20
10.601328
 30
0.0
 10
-18.338852
 20
10.567219
 30
0.0
 10
-18.398908
 20
10.555248
 30
0.0
 10
-18.460312
 20
10.565339
 30
0.0
 10
-18.525183
 20
10.597430
 30
0.0
 10
-18.579367
 20
10.648089
 30
0.0
 10
-18.609233
 20
10.722221
 30
0.0
 10
-18.617326
 20
10.832229
 30
0.0
 10
-18.606253
 20
10.990527
 30
0.0
 10
-18.590033
 20
11.224768
 30
0.0
 10
-18.595959
 20
11.445374
 30
0.0
 10
-18.626163
 20
11.679348
 30
0.0
 10
-18.682813
 20
11.953706
 30
0.0
 10
-18.730527
 20
12.150040
 30
0.0
 10
-18.772088
 20
12.292932
 30
0.0
 10
-18.818362
 20
12.415090
 30
0.0
 10
-18.880203
 20
12.549232
 30
0.0
 10
-18.986239
 20
12.749875
 30
0.0
 10
-19.104512
 20
12.939957
 30
0.0
 10
-19.234373
 20
13.118509
 30
0.0
 10
-19.375174
 20
13.284554
 30
0.0
 10
-19.481200
 20
13.396411
 30
0.0
 10
-19.581564
 20
13.490948
 30
0.0
 10
-19.699787
 20
13.588878
 30
0.0
 10
-19.859381
 20
13.710905
 30
0.0
 10
-19.971448
 20
13.803250
 30
0.0
 10
-20.034694
 20
13.881086
 30
0.0
 10
-20.066083
 20
13.970038
 30
0.0
 10
-20.044310
 20
14.046946
 30
0.0
 10
-20.044314
 20
14.046943
 30
0.0
 10
-20.044320
 20
14.046937
 30
0.0
 10
-20.044324
 20
14.046934
 30
0.0
  0
LWPOLYLINE
  5
113
100
AcDbEntity
  8
engraving
 62
7
100
AcDbPolyline
 90
8
 70
1
 10
0.419882
 20
15.262461
 30
0.0
 10
4.264022
 20
6.880743
 30
0.0
 10
0.590193
 20
6.296821
 30
0.0
 10
0.298232
 20
8.450035
 30
0.0
 10
-2.657860
 20
8.523024
 30
0.0
 10
-3.326935
 20
6.223829
 30
0.0
 10
-6.866947
 20
6.856412
 30
0.0
 10
-2.013116
 20
15.019160
 30
0.0
  0
LWPOLYLINE
  5
114
100
AcDbEntity
  8
engraving
 62
7
100
AcDbPolyline
 90
4
 70
1
 10
-1.392700
 20
12.075218
 30
0.0
 10
-1.891466
 20
10.834383
 30
0.0
 10
-0.030220
 20
10.785721
 30
0.0
 10
-0.455995
 20
12.038724
 30
0.0
  0
LWPOLYLINE
  5
115
100
AcDbEntity
  8
engraving
 62
1
100
AcDbPolyline
 90
396
 70
1
 10
-14.129112
 20
-2.343120
 30
0.0
 10
-14.077042
 20
-2.353420
 30
0.0
 10
-14.031262
 20
-2.381020
 30
0.0
 10
-13.996462
 20
-2.421820
 30
0.0
 10
-13.977352
 20
-2.471420
 30
0.0
 10
-13.836718
 20
-3.209870
 30
0.0
 10
-13.696083
 20
-3.948320
 30
0.0
 10
-13.555448
 20
-4.686770
 30
0.0
 10
-13.414813
 20
-5.425220
 30
0.0
 10
-13.395783
 20
-5.477720
 30
0.0
 10
-13.361863
 20
-5.526620
 30
0.0
 10
-13.317603
 20
-5.566520
 30
0.0
 10
-13.267763
 20
-5.591820
 30
0.0
 10
-12.764745
 20
-5.794490
 30
0.0
 10
-12.261728
 20
-5.997150
 30
0.0
 10
-11.758710
 20
-6.199820
 30
0.0
 10
-11.255692
 20
-6.402500
 30
0.0
 10
-11.201552
 20
-6.418700
 30
0.0
 10
-11.140962
 20
-6.420700
 30
0.0
 10
-11.081252
 20
-6.409300
 30
0.0
 10
-11.029822
 20
-6.385600
 30
0.0
 10
-10.402268
 20
-5.962500
 30
0.0
 10
-9.774721
 20
-5.539400
 30
0.0
 10
-9.147168
 20
-5.116310
 30
0.0
 10
-8.519614
 20
-4.693220
 30
0.0
 10
-8.470092
 20
-4.672020
 30
0.0
 10
-8.415712
 20
-4.669020
 30
0.0
 10
-8.362852
 20
-4.681520
 30
0.0
 10
-8.317868
 20
-4.710920
 30
0.0
 10
-7.789340
 20
-5.230390
 30
0.0
 10
-7.260812
 20
-5.749870
 30
0.0
 10
-6.732278
 20
-6.269350
 30
0.0
 10
-6.203750
 20
-6.788820
 30
0.0
 10
-6.173650
 20
-6.832520
 30
0.0
 10
-6.160595
 20
-6.884820
 30
0.0
 10
-6.164595
 20
-6.938620
 30
0.0
 10
-6.186567
 20
-6.986820
 30
0.0
 10
-6.609698
 20
-7.593070
 30
0.0
 10
-7.032821
 20
-8.199310
 30
0.0
 10
-7.455951
 20
-8.805550
 30
0.0
 10
-7.879074
 20
-9.411800
 30
0.0
 10
-7.902646
 20
-9.462200
 30
0.0
 10
-7.913049
 20
-9.520700
 30
0.0
 10
-7.909849
 20
-9.580200
 30
0.0
 10
-7.892416
 20
-9.633200
 30
0.0
 10
-7.669768
 20
-10.143950
 30
0.0
 10
-7.447113
 20
-10.654690
 30
0.0
 10
-7.224465
 20
-11.165430
 30
0.0
 10
-7.001810
 20
-11.676180
 30
0.0
 10
-6.975060
 20
-11.725480
 30
0.0
 10
-6.933655
 20
-11.768980
 30
0.0
 10
-6.883184
 20
-11.802280
 30
0.0
 10
-6.829284
 20
-11.820580
 30
0.0
 10
-6.102710
 20
-11.953350
 30
0.0
 10
-5.376129
 20
-12.086140
 30
0.0
 10
-4.649556
 20
-12.218920
 30
0.0
 10
-3.922974
 20
-12.351700
 30
0.0
 10
-3.873212
 20
-12.371100
 30
0.0
 10
-3.832687
 20
-12.406700
 30
0.0
 10
-3.805377
 20
-12.453200
 30
0.0
 10
-3.795317
 20
-12.505300
 30
0.0
 10
-3.795317
 20
-13.239950
 30
0.0
 10
-3.795317
 20
-13.974610
 30
0.0
 10
-3.795317
 20
-14.709280
 30
0.0
 10
-3.795317
 20
-15.443940
 30
0.0
 10
-3.805720
 20
-15.496340
 30
0.0
 10
-3.833911
 20
-15.542940
 30
0.0
 10
-3.875317
 20
-15.578540
 30
0.0
 10
-3.925319
 20
-15.597740
 30
0.0
 10
-4.633668
 20
-15.727020
 30
0.0
 10
-5.342017
 20
-15.856300
 30
0.0
 10
-6.050366
 20
-15.985600
 30
0.0
 10
-6.758715
 20
-16.114890
 30
0.0
 10
-6.812055
 20
-16.133490
 30
0.0
 10
-6.861337
 20
-16.167090
 30
0.0
 10
-6.901222
 20
-16.210990
 30
0.0
 10
-6.926383
 20
-16.260490
 30
0.0
 10
-7.147510
 20
-16.804130
 30
0.0
 10
-7.368638
 20
-17.347780
 30
0.0
 10
-7.589765
 20
-17.891410
 30
0.0
 10
-7.810892
 20
-18.435060
 30
0.0
 10
-7.827216
 20
-18.488160
 30
0.0
 10
-7.828816
 20
-18.547060
 30
0.0
 10
-7.816950
 20
-18.605060
 30
0.0
 10
-7.792269
 20
-18.655160
 30
0.0
 10
-7.390109
 20
-19.231710
 30
0.0
 10
-6.987950
 20
-19.808260
 30
0.0
 10
-6.585782
 20
-20.384800
 30
0.0
 10
-6.183623
 20
-20.961360
 30
0.0
 10
-6.161971
 20
-21.010060
 30
0.0
 10
-6.157971
 20
-21.063760
 30
0.0
 10
-6.171586
 20
-21.115760
 30
0.0
 10
-6.201606
 20
-21.159460
 30
0.0
 10
-6.730435
 20
-21.679220
 30
0.0
 10
-7.259266
 20
-22.198990
 30
0.0
 10
-7.788087
 20
-22.718750
 30
0.0
 10
-8.316917
 20
-23.238530
 30
0.0
 10
-8.361821
 20
-23.267730
 30
0.0
 10
-8.414693
 20
-23.280630
 30
0.0
 10
-8.469073
 20
-23.277630
 30
0.0
 10
-8.518515
 20
-23.256830
 30
0.0
 10
-9.094431
 20
-22.868100
 30
0.0
 10
-9.670346
 20
-22.479370
 30
0.0
 10
-10.246260
 20
-22.090630
 30
0.0
 10
-10.822176
 20
-21.701910
 30
0.0
 10
-10.872736
 20
-21.678910
 30
0.0
 10
-10.931416
 20
-21.669910
 30
0.0
 10
-10.990736
 20
-21.674910
 30
0.0
 10
-11.043286
 20
-21.694410
 30
0.0
 10
-11.296921
 20
-21.828060
 30
0.0
 10
-11.550555
 20
-21.961710
 30
0.0
 10
-11.804190
 20
-22.095370
 30
0.0
 10
-12.057824
 20
-22.229030
 30
0.0
 10
-12.107344
 20
-22.242530
 30
0.0
 10
-12.155354
 20
-22.235530
 30
0.0
 10
-12.196514
 20
-22.210530
 30
0.0
 10
-12.225574
 20
-22.169530
 30
0.0
 10
-12.395366
 20
-21.755750
 30
0.0
 10
-12.565164
 20
-21.341970
 30
0.0
 10
-12.734954
 20
-20.928190
 30
0.0
 10
-12.904744
 20
-20.514410
 30
0.0
 10
-12.519137
 20
-20.272740
 30
0.0
 10
-12.151244
 20
-20.000640
 30
0.0
 10
-11.808359
 20
-19.700650
 30
0.0
 10
-11.497775
 20
-19.375300
 30
0.0
 10
-11.342841
 20
-19.181130
 30
0.0
 10
-11.162614
 20
-18.932910
 30
0.0
 10
-10.988380
 20
-18.675260
 30
0.0
 10
-10.851408
 20
-18.452830
 30
0.0
 10
-10.340619
 20
-17.326610
 30
0.0
 10
-10.043633
 20
-16.123260
 30
0.0
 10
-9.960685
 20
-14.845120
 30
0.0
 10
-10.092021
 20
-13.494490
 30
0.0
 10
-10.187861
 20
-13.067090
 30
0.0
 10
-10.329635
 20
-12.600630
 30
0.0
 10
-10.500826
 20
-12.143720
 30
0.0
 10
-10.684916
 20
-11.745060
 30
0.0
 10
-11.254916
 20
-10.903920
 30
0.0
 10
-11.979347
 20
-10.262450
 30
0.0
 10
-12.857869
 20
-9.820970
 30
0.0
 10
-13.890123
 20
-9.579780
 30
0.0
 10
-14.074634
 20
-9.558780
 30
0.0
 10
-14.255850
 20
-9.543480
 30
0.0
 10
-14.437669
 20
-9.534480
 30
0.0
 10
-14.623989
 20
-9.531480
 30
0.0
 10
-14.818803
 20
-9.532480
 30
0.0
 10
-15.026212
 20
-9.539480
 30
0.0
 10
-15.250300
 20
-9.551180
 30
0.0
 10
-15.495154
 20
-9.568880
 30
0.0
 10
-16.028426
 20
-9.641880
 30
0.0
 10
-16.726712
 20
-9.769280
 30
0.0
 10
-17.331368
 20
-9.899830
 30
0.0
 10
-17.583752
 20
-9.982330
 30
0.0
 10
-17.555642
 20
-10.024830
 30
0.0
 10
-17.485422
 20
-10.117330
 30
0.0
 10
-17.383566
 20
-10.246290
 30
0.0
 10
-17.260615
 20
-10.398150
 30
0.0
 10
-17.181955
 20
-10.494550
 30
0.0
 10
-17.103295
 20
-10.590950
 30
0.0
 10
-17.024635
 20
-10.687350
 30
0.0
 10
-16.945975
 20
-10.783750
 30
0.0
 10
-16.829034
 20
-10.760050
 30
0.0
 10
-16.712086
 20
-10.736450
 30
0.0
 10
-16.595145
 20
-10.712750
 30
0.0
 10
-16.478196
 20
-10.689150
 30
0.0
 10
-15.542899
 20
-10.546690
 30
0.0
 10
-14.661463
 20
-10.503390
 30
0.0
 10
-13.875552
 20
-10.559090
 30
0.0
 10
-13.226820
 20
-10.713690
 30
0.0
 10
-13.162720
 20
-10.741390
 30
0.0
 10
-13.080150
 20
-10.783690
 30
0.0
 10
-12.989820
 20
-10.834690
 30
0.0
 10
-12.902410
 20
-10.888490
 30
0.0
 10
-12.799388
 20
-10.958390
 30
0.0
 10
-12.727578
 20
-11.017190
 30
0.0
 10
-12.675428
 20
-11.075990
 30
0.0
 10
-12.631408
 20
-11.145790
 30
0.0
 10
-12.553548
 20
-11.375400
 30
0.0
 10
-12.572968
 20
-11.611390
 30
0.0
 10
-12.690872
 20
-11.858320
 30
0.0
 10
-12.908457
 20
-12.120690
 30
0.0
 10
-13.105556
 20
-12.300240
 30
0.0
 10
-13.341158
 20
-12.476250
 30
0.0
 10
-13.624060
 20
-12.654710
 30
0.0
 10
-13.963067
 20
-12.841650
 30
0.0
 10
-14.128893
 20
-12.919750
 30
0.0
 10
-14.362877
 20
-13.021600
 30
0.0
 10
-14.583471
 20
-13.112700
 30
0.0
 10
-14.709082
 20
-13.158400
 30
0.0
 10
-14.689022
 20
-13.280070
 30
0.0
 10
-14.620542
 20
-13.610070
 30
0.0
 10
-14.514296
 20
-14.097730
 30
0.0
 10
-14.381011
 20
-14.692380
 30
0.0
 10
-14.248257
 20
-15.284110
 30
0.0
 10
-14.143726
 20
-15.764070
 30
0.0
 10
-14.077956
 20
-16.082920
 30
0.0
 10
-14.061476
 20
-16.191410
 30
0.0
 10
-14.134086
 20
-16.072810
 30
0.0
 10
-14.311638
 20
-15.773490
 30
0.0
 10
-14.567327
 20
-15.338640
 30
0.0
 10
-14.874313
 20
-14.813510
 30
0.0
 10
-15.070544
 20
-14.476910
 30
0.0
 10
-15.266767
 20
-14.140290
 30
0.0
 10
-15.462999
 20
-13.803680
 30
0.0
 10
-15.659221
 20
-13.467080
 30
0.0
 10
-15.679281
 20
-13.470080
 30
0.0
 10
-15.699341
 20
-13.475080
 30
0.0
 10
-15.719401
 20
-13.478080
 30
0.0
 10
-15.739461
 20
-13.483080
 30
0.0
 10
-15.759121
 20
-13.488080
 30
0.0
 10
-15.778861
 20
-13.491080
 30
0.0
 10
-15.798601
 20
-13.496080
 30
0.0
 10
-15.818261
 20
-13.499080
 30
0.0
 10
-15.779961
 20
-13.670000
 30
0.0
 10
-15.741661
 20
-13.840930
 30
0.0
 10
-15.703361
 20
-14.011860
 30
0.0
 10
-15.665061
 20
-14.182780
 30
0.0
 10
-15.580511
 20
-14.562770
 30
0.0
 10
-15.540701
 20
-14.761740
 30
0.0
 10
-15.537501
 20
-14.830240
 30
0.0
 10
-15.563771
 20
-14.818840
 30
0.0
 10
-15.692917
 20
-14.690850
 30
0.0
 10
-15.939697
 20
-14.439650
 30
0.0
 10
-16.229972
 20
-14.141040
 30
0.0
 10
-16.489625
 20
-13.870750
 30
0.0
 10
-16.537635
 20
-13.820050
 30
0.0
 10
-16.585645
 20
-13.769450
 30
0.0
 10
-16.633655
 20
-13.718850
 30
0.0
 10
-16.681665
 20
-13.668250
 30
0.0
 10
-16.749745
 20
-13.675250
 30
0.0
 10
-16.817825
 20
-13.682250
 30
0.0
 10
-16.885905
 20
-13.689250
 30
0.0
 10
-16.953985
 20
-13.696250
 30
0.0
 10
-18.180407
 20
-13.746550
 30
0.0
 10
-19.153164
 20
-13.621380
 30
0.0
 10
-19.809404
 20
-13.336510
 30
0.0
 10
-20.086278
 20
-12.907730
 30
0.0
 10
-20.083078
 20
-12.733020
 30
0.0
 10
-20.028378
 20
-12.550660
 30
0.0
 10
-19.923767
 20
-12.363390
 30
0.0
 10
-19.770521
 20
-12.173940
 30
0.0
 10
-19.725381
 20
-12.123840
 30
0.0
 10
-19.689151
 20
-12.080440
 30
0.0
 10
-19.665431
 20
-12.048240
 30
0.0
 10
-19.657431
 20
-12.031940
 30
0.0
 10
-19.747771
 20
-11.912120
 30
0.0
 10
-19.945053
 20
-11.662850
 30
0.0
 10
-20.145838
 20
-11.413510
 30
0.0
 10
-20.246688
 20
-11.293470
 30
0.0
 10
-20.298438
 20
-11.328570
 30
0.0
 10
-20.408183
 20
-11.428940
 30
0.0
 10
-20.541055
 20
-11.561150
 30
0.0
 10
-20.662200
 20
-11.691870
 30
0.0
 10
-21.131500
 20
-12.366030
 30
0.0
 10
-21.438541
 20
-13.125240
 30
0.0
 10
-21.582489
 20
-13.966190
 30
0.0
 10
-21.562509
 20
-14.885590
 30
0.0
 10
-21.503349
 20
-15.277670
 30
0.0
 10
-21.408049
 20
-15.738970
 30
0.0
 10
-21.293703
 20
-16.195190
 30
0.0
 10
-21.177376
 20
-16.572140
 30
0.0
 10
-20.660791
 20
-17.719480
 30
0.0
 10
-19.989280
 20
-18.735150
 30
0.0
 10
-19.181283
 20
-19.601700
 30
0.0
 10
-18.255262
 20
-20.301660
 30
0.0
 10
-18.446931
 20
-20.768140
 30
0.0
 10
-18.638600
 20
-21.234620
 30
0.0
 10
-18.830269
 20
-21.701110
 30
0.0
 10
-19.021938
 20
-22.167590
 30
0.0
 10
-19.050998
 20
-22.209090
 30
0.0
 10
-19.092168
 20
-22.234090
 30
0.0
 10
-19.140178
 20
-22.241090
 30
0.0
 10
-19.189698
 20
-22.227490
 30
0.0
 10
-19.443333
 20
-22.093830
 30
0.0
 10
-19.696968
 20
-21.960170
 30
0.0
 10
-19.950602
 20
-21.826510
 30
0.0
 10
-20.204237
 20
-21.692860
 30
0.0
 10
-20.256787
 20
-21.673560
 30
0.0
 10
-20.316187
 20
-21.668560
 30
0.0
 10
-20.374867
 20
-21.677560
 30
0.0
 10
-20.425417
 20
-21.701160
 30
0.0
 10
-21.001331
 20
-22.089880
 30
0.0
 10
-21.577246
 20
-22.478630
 30
0.0
 10
-22.153154
 20
-22.867350
 30
0.0
 10
-22.729068
 20
-23.256080
 30
0.0
 10
-22.779068
 20
-23.276780
 30
0.0
 10
-22.834158
 20
-23.279780
 30
0.0
 10
-22.887418
 20
-23.266380
 30
0.0
 10
-22.931998
 20
-23.236880
 30
0.0
 10
-23.460524
 20
-22.717110
 30
0.0
 10
-23.989052
 20
-22.197340
 30
0.0
 10
-24.517571
 20
-21.677580
 30
0.0
 10
-25.046098
 20
-21.157820
 30
0.0
 10
-25.076198
 20
-21.114120
 30
0.0
 10
-25.090218
 20
-21.062120
 30
0.0
 10
-25.087018
 20
-21.008420
 30
0.0
 10
-25.065608
 20
-20.959720
 30
0.0
 10
-24.663139
 20
-20.383170
 30
0.0
 10
-24.260677
 20
-19.806630
 30
0.0
 10
-23.858206
 20
-19.230070
 30
0.0
 10
-23.455737
 20
-18.653520
 30
0.0
 10
-23.431297
 20
-18.603820
 30
0.0
 10
-23.419867
 20
-18.545820
 30
0.0
 10
-23.422267
 20
-18.486620
 30
0.0
 10
-23.438827
 20
-18.433220
 30
0.0
 10
-23.659660
 20
-17.889580
 30
0.0
 10
-23.880484
 20
-17.345940
 30
0.0
 10
-24.101317
 20
-16.802290
 30
0.0
 10
-24.322141
 20
-16.258660
 30
0.0
 10
-24.347781
 20
-16.209160
 30
0.0
 10
-24.387581
 20
-16.165260
 30
0.0
 10
-24.436541
 20
-16.131660
 30
0.0
 10
-24.489801
 20
-16.113160
 30
0.0
 10
-25.198150
 20
-15.983880
 30
0.0
 10
-25.906499
 20
-15.854590
 30
0.0
 10
-26.614848
 20
-15.725310
 30
0.0
 10
-27.323198
 20
-15.596030
 30
0.0
 10
-27.372958
 20
-15.576630
 30
0.0
 10
-27.413488
 20
-15.541030
 30
0.0
 10
-27.440798
 20
-15.494530
 30
0.0
 10
-27.450858
 20
-15.442130
 30
0.0
 10
-27.451654
 20
-14.707470
 30
0.0
 10
-27.452450
 20
-13.972800
 30
0.0
 10
-27.453247
 20
-13.238150
 30
0.0
 10
-27.454042
 20
-12.503480
 30
0.0
 10
-27.444242
 20
-12.451480
 30
0.0
 10
-27.416452
 20
-12.405180
 30
0.0
 10
-27.375282
 20
-12.369580
 30
0.0
 10
-27.325362
 20
-12.349780
 30
0.0
 10
-26.599092
 20
-12.216990
 30
0.0
 10
-25.872821
 20
-12.084210
 30
0.0
 10
-25.146550
 20
-11.951430
 30
0.0
 10
-24.420279
 20
-11.818650
 30
0.0
 10
-24.366059
 20
-11.800150
 30
0.0
 10
-24.315189
 20
-11.766950
 30
0.0
 10
-24.273399
 20
-11.723550
 30
0.0
 10
-24.246489
 20
-11.674250
 30
0.0
 10
-24.024439
 20
-11.163510
 30
0.0
 10
-23.802388
 20
-10.652780
 30
0.0
 10
-23.580337
 20
-10.142040
 30
0.0
 10
-23.358287
 20
-9.631300
 30
0.0
 10
-23.340537
 20
-9.578300
 30
0.0
 10
-23.336537
 20
-9.518900
 30
0.0
 10
-23.346437
 20
-9.460400
 30
0.0
 10
-23.370397
 20
-9.410000
 30
0.0
 10
-23.794133
 20
-8.803750
 30
0.0
 10
-24.217868
 20
-8.197500
 30
0.0
 10
-24.641596
 20
-7.591250
 30
0.0
 10
-25.065330
 20
-6.985000
 30
0.0
 10
-25.086830
 20
-6.936800
 30
0.0
 10
-25.090030
 20
-6.883000
 30
0.0
 10
-25.076010
 20
-6.830600
 30
0.0
 10
-25.045830
 20
-6.786900
 30
0.0
 10
-24.517304
 20
-6.267430
 30
0.0
 10
-23.988776
 20
-5.747940
 30
0.0
 10
-23.460250
 20
-5.228470
 30
0.0
 10
-22.931722
 20
-4.709000
 30
0.0
 10
-22.887062
 20
-4.679600
 30
0.0
 10
-22.834752
 20
-4.667100
 30
0.0
 10
-22.781092
 20
-4.672100
 30
0.0
 10
-22.732452
 20
-4.693300
 30
0.0
 10
-22.104906
 20
-5.116390
 30
0.0
 10
-21.477361
 20
-5.539480
 30
0.0
 10
-20.849806
 20
-5.962580
 30
0.0
 10
-20.222260
 20
-6.385670
 30
0.0
 10
-20.171310
 20
-6.409370
 30
0.0
 10
-20.111520
 20
-6.420770
 30
0.0
 10
-20.050610
 20
-6.418770
 30
0.0
 10
-19.996230
 20
-6.402470
 30
0.0
 10
-19.492607
 20
-6.199810
 30
0.0
 10
-18.988991
 20
-5.997140
 30
0.0
 10
-18.485369
 20
-5.794460
 30
0.0
 10
-17.981745
 20
-5.591800
 30
0.0
 10
-17.931585
 20
-5.566500
 30
0.0
 10
-17.886925
 20
-5.526600
 30
0.0
 10
-17.852605
 20
-5.477700
 30
0.0
 10
-17.833575
 20
-5.425200
 30
0.0
 10
-17.693848
 20
-4.686750
 30
0.0
 10
-17.554121
 20
-3.948300
 30
0.0
 10
-17.414394
 20
-3.209860
 30
0.0
 10
-17.274667
 20
-2.471410
 30
0.0
 10
-17.255007
 20
-2.421810
 30
0.0
 10
-17.219257
 20
-2.381010
 30
0.0
 10
-17.172367
 20
-2.353510
 30
0.0
 10
-17.119267
 20
-2.343210
 30
0.0
 10
-16.371732
 20
-2.343210
 30
0.0
 10
-15.624195
 20
-2.343210
 30
0.0
 10
-14.876658
 20
-2.343210
 30
0.0
 10
-14.129121
 20
-2.343210
 30
0.0
 10
-14.128922
 20
-2.343210
 30
0.0
 10
-14.128724
 20
-2.343210
 30
0.0
 10
-14.128525
 20
-2.343210
 30
0.0
 10
-14.128326
 20
-2.343210
 30
0.0
 10
-14.128398
 20
-2.343230
 30
0.0
 10
-14.128469
 20
-2.343240
 30
0.0
 10
-14.128541
 20
-2.343250
 30
0.0
  0
LWPOLYLINE
  5
116
100
AcDbEntity
  8
engraving
 62
1
100
AcDbPolyline
 90
24
 70
1
 10
-22.368089
 20
-6.671300
 30
0.0
 10
-22.524217
 20
-6.796810
 30
0.0
 10
-22.680345
 20
-6.922310
 30
0.0
 10
-22.836473
 20
-7.047810
 30
0.0
 10
-22.992601
 20
-7.173320
 30
0.0
 10
-21.718974
 20
-8.524720
 30
0.0
 10
-20.445339
 20
-9.876110
 30
0.0
 10
-19.171712
 20
-11.227510
 30
0.0
 10
-17.898076
 20
-12.578910
 30
0.0
 10
-17.851346
 20
-12.584910
 30
0.0
 10
-17.729565
 20
-12.597910
 30
0.0
 10
-17.560196
 20
-12.610710
 30
0.0
 10
-17.370741
 20
-12.616710
 30
0.0
 10
-17.054655
 20
-12.549710
 30
0.0
 10
-16.857675
 20
-12.403200
 30
0.0
 10
-16.756539
 20
-12.256860
 30
0.0
 10
-16.727959
 20
-12.190360
 30
0.0
 10
-18.137977
 20
-10.810720
 30
0.0
 10
-19.547995
 20
-9.431070
 30
0.0
 10
-20.958014
 20
-8.051420
 30
0.0
 10
-22.368032
 20
-6.671780
 30
0.0
 10
-22.368032
 20
-6.671790
 30
0.0
 10
-22.368032
 20
-6.671790
 30
0.0
 10
-22.368032
 20
-6.671800
 30
0.0
  0
SPLINE
  5
117
100
AcDbEntity
  8
size
 62
1
100
AcDbSpline
 70
0
 71
3
 72
13
 73
9
 74
7
 40
0.000000
 40
0.000000
 40
0.000000
 40
0.000000
 40
4.381796
 40
8.727330
 40
13.109126
 40
17.490922
 40
21.836457
 40
26.218252
 40
26.218252
 40
26.218252
 40
26.218252
 10
143.536971
 20
-721.936781
 30
0.0
 10
145.001837
 20
-722.048366
 30
0.0
 10
147.919447
 20
-722.270612
 30
0.0
 10
152.001053
 20
-724.026934
 30
0.0
 10
155.513543
 20
-726.699003
 30
0.0
 10
158.185612
 20
-730.211492
 30
0.0
 10
159.941933
 20
-734.293099
 30
0.0
 10
160.164180
 20
-737.210709
 30
0.0
 10
160.275764
 20
-738.675575
 30
0.0
 11
143.536971
 21
-721.936781
 31
0.0
 11
147.881077
 21
-722.510261
 31
0.0
 11
151.895827
 21
-724.173225
 31
0.0
 11
155.373085
 21
-726.839460
 31
0.0
 11
158.039320
 21
-730.316718
 31
0.0
 11
159.702285
 21
-734.331469
 31
0.0
 11
160.275764
 21
-738.675575
 31
0.0
  0
LWPOLYLINE
  5
118
100
AcDbEntity
  8
engraving
 62
1
100
AcDbPolyline
 90
20
 70
1
 10
-18.125270
 20
-20.380360
 30
0.0
 10
-18.081010
 20
-20.407360
 30
0.0
 10
-18.037070
 20
-20.434760
 30
0.0
 10
-17.992890
 20
-20.461860
 30
0.0
 10
-17.947990
 20
-20.487660
 30
0.0
 10
-17.971320
 20
-20.503760
 30
0.0
 10
-17.996800
 20
-20.521460
 30
0.0
 10
-18.020050
 20
-20.537660
 30
0.0
 10
-18.036610
 20
-20.549160
 30
0.0
 10
-18.072920
 20
-20.573360
 30
0.0
 10
-18.103810
 20
-20.592460
 30
0.0
 10
-18.125700
 20
-20.604360
 30
0.0
 10
-18.135000
 20
-20.607360
 30
0.0
 10
-18.135510
 20
-20.585660
 30
0.0
 10
-18.133110
 20
-20.532860
 30
0.0
 10
-18.129110
 20
-20.460660
 30
0.0
 10
-18.124310
 20
-20.380260
 30
0.0
 10
-18.124470
 20
-20.380240
 30
0.0
 10
-18.124621
 20
-20.380210
 30
0.0
 10
-18.124780
 20
-20.380190
 30
0.0
  0
ENDSEC
  0
SECTION
  2
OBJECTS
  0
DICTIONARY
  5
C
330
0
100
AcDbDictionary
  3
ACAD_GROUP
350
D
  3
ACAD_MLINESTYLE
350
17
  0
DICTIONARY
  5
D
330
C
100
AcDbDictionary
  0
DICTIONARY
  5
1A
330
C
100
AcDbDictionary
  0
DICTIONARY
  5
17
330
C
100
AcDbDictionary
  3
STANDARD
350
18
  0
DICTIONARY
  5
19
330
C
100
AcDbDictionary
  0
ENDSEC
  0
EOF
